<svg version="1.1" id="Layer_1" xmlns="http://www.w3.org/2000/svg" xmlns:xlink="http://www.w3.org/1999/xlink" x="0px" y="0px"
	 width="100%" viewBox="0 0 4167 806" enable-background="new 0 0 4167 806" xml:space="preserve">
<path fill="#FFFFFF" opacity="1.000000" stroke="none" 
	d="
M3052.000000,807.000000 
	C2034.666626,807.000000 1017.833313,807.000000 1.000000,807.000000 
	C1.000000,538.333313 1.000000,269.666656 1.000000,1.000000 
	C1390.000000,1.000000 2779.000000,1.000000 4168.000000,1.000000 
	C4168.000000,269.666656 4168.000000,538.333313 4168.000000,807.000000 
	C3796.166748,807.000000 3424.333252,807.000000 3052.000000,807.000000 
M3086.502686,457.998596 
	C3074.448242,481.728485 3062.393555,505.458344 3049.968750,529.917358 
	C3012.899170,486.956482 2976.337158,444.583649 2939.422119,401.801880 
	C2976.688721,358.578003 3013.787109,315.549377 3051.334229,272.000000 
	C3023.568359,272.000000 2996.747070,272.174561 2969.931152,271.880585 
	C2962.993408,271.804535 2957.817871,272.702576 2953.133789,278.987823 
	C2944.355713,290.766968 2934.196533,301.510345 2924.741211,312.793121 
	C2909.748291,330.683685 2894.900146,348.695984 2879.851318,366.539215 
	C2878.749023,367.845886 2876.525146,368.883392 2874.813965,368.896362 
	C2853.816650,369.055542 2832.817627,369.005249 2811.819092,368.986877 
	C2810.563721,368.985779 2809.308350,368.795715 2807.688721,368.663940 
	C2807.688721,336.222778 2807.688721,304.150513 2807.688721,272.357666 
	C2784.216553,272.357666 2761.143799,272.357666 2738.355957,272.357666 
	C2738.355957,359.116791 2738.355957,445.518066 2738.355957,531.641479 
	C2761.785156,531.641479 2784.857910,531.641479 2808.322754,531.641479 
	C2808.322754,499.211273 2808.322754,467.138977 2808.322754,435.000031 
	C2831.051270,435.000031 2853.381348,434.970215 2875.710449,435.068237 
	C2877.172607,435.074646 2879.123779,435.632507 2880.012451,436.657776 
	C2886.962158,444.674072 2893.718994,452.857788 2900.513184,461.008545 
	C2910.442139,472.920624 2920.383057,484.823212 2930.261475,496.777344 
	C2937.631104,505.694885 2944.958984,514.647705 2952.209961,523.661743 
	C2956.500000,528.995239 2960.729492,532.386047 2968.780029,532.293884 
	C3019.436523,531.713501 3070.103027,532.000000 3120.766113,532.000000 
	C3123.085205,532.000000 3125.404297,532.000000 3127.590576,532.000000 
	C3135.813477,514.426208 3143.975098,497.133606 3151.966309,479.762878 
	C3153.337891,476.781128 3155.093018,475.902069 3158.367432,475.912445 
	C3200.197266,476.045197 3242.028320,476.075653 3283.857910,475.898224 
	C3288.740967,475.877533 3291.413330,476.589569 3293.639893,481.813019 
	C3300.248291,497.315765 3307.930176,512.359497 3315.102539,527.624817 
	C3316.301758,530.177063 3316.981934,532.180481 3320.805908,532.136963 
	C3344.634521,531.865356 3368.467773,532.003052 3392.299316,531.987366 
	C3393.177002,531.986816 3394.054688,531.802795 3394.954834,531.701721 
	C3394.831299,530.918335 3394.858154,530.563599 3394.720947,530.291870 
	C3372.162598,485.607910 3349.524658,440.964111 3327.042969,396.241638 
	C3306.943115,356.257111 3286.963135,316.212158 3267.112305,276.103607 
	C3265.549561,272.945496 3263.947266,271.898010 3260.500000,271.918549 
	C3235.169434,272.069397 3209.836670,272.068390 3184.506104,271.919647 
	C3181.066406,271.899445 3179.462646,272.939178 3177.884521,276.095184 
	C3160.823730,310.216461 3143.460938,344.186737 3126.326660,378.271759 
	C3113.098389,404.586853 3100.078125,431.006470 3086.502686,457.998596 
M871.000000,500.500000 
	C871.000000,510.929535 871.000000,521.359070 871.000000,531.714355 
	C894.642212,531.714355 917.711487,531.714355 941.354126,531.714355 
	C941.354126,471.312927 941.354126,411.195770 941.354126,351.078613 
	C943.088745,351.959381 944.055847,353.005493 944.630676,354.235016 
	C951.563232,369.063629 958.376953,383.947968 965.343079,398.760651 
	C973.749390,416.635712 982.304077,434.440887 990.736816,452.303558 
	C1002.871216,478.007416 1014.922058,503.750763 1027.155640,529.407166 
	C1027.733398,530.618835 1029.732422,531.885254 1031.075562,531.891907 
	C1059.896362,532.034119 1088.717773,531.999939 1117.596436,531.999939 
	C1132.103516,501.410461 1147.040039,471.161957 1160.789429,440.383148 
	C1167.394775,425.596924 1203.038086,351.390198 1206.114014,350.213654 
	C1206.114014,410.762207 1206.114014,471.194611 1206.114014,531.790649 
	C1229.488037,531.790649 1252.556763,531.790649 1275.803589,531.790649 
	C1275.803589,445.187714 1275.803589,358.794189 1275.803589,272.200317 
	C1237.838379,272.200317 1200.069092,272.200317 1162.581421,272.200317 
	C1132.935547,333.390289 1103.356812,394.441528 1073.289795,456.500641 
	C1042.909790,394.010803 1013.265869,333.034943 983.738892,272.299683 
	C946.018005,272.299683 908.604858,272.299683 871.000000,272.299683 
	C871.000000,348.232819 871.000000,423.866425 871.000000,500.500000 
M336.623474,493.032593 
	C331.472839,496.349823 326.562164,500.140228 321.127045,502.896454 
	C304.200409,511.480377 285.954681,514.627502 267.132629,515.002136 
	C252.691605,515.289551 240.681870,521.640015 231.125381,531.691956 
	C220.247910,543.133484 215.142822,557.189758 215.880386,573.393616 
	C216.515091,587.337097 221.249405,599.409851 230.863739,609.200989 
	C244.828049,623.422058 261.734039,629.132812 281.842529,626.136719 
	C301.356659,623.229126 315.051331,613.004272 324.496857,596.098389 
	C330.578552,585.213257 329.884979,573.134888 330.838837,561.450012 
	C331.987610,547.377075 335.750366,534.206360 341.868500,521.658936 
	C350.337952,504.289093 362.711151,489.947906 378.632080,479.239410 
	C404.583618,461.784363 433.537750,455.525818 464.060760,462.269348 
	C498.164124,469.803864 523.621826,489.942505 539.921326,520.974365 
	C548.256165,536.842529 551.770935,554.049133 552.052246,571.959839 
	C552.118713,576.189514 552.169495,580.609863 553.367798,584.600098 
	C560.424500,608.096863 575.717346,622.281555 600.434448,626.103577 
	C613.865234,628.180420 626.029907,625.759644 637.732849,619.073364 
	C662.232544,605.076050 670.470886,577.339050 662.837463,552.853882 
	C655.991882,530.895813 634.659424,514.267517 611.259277,514.930664 
	C606.354370,515.069702 601.362305,514.707397 596.517639,513.917969 
	C581.365845,511.448975 566.822693,507.202362 553.495239,499.170776 
	C540.284119,491.209229 528.980469,481.237823 520.014709,468.737396 
	C509.144470,453.581543 502.159241,436.917084 499.853790,418.180359 
	C497.737610,400.981628 498.915894,384.200104 504.640900,367.964813 
	C511.200104,349.363922 521.715576,333.337830 536.965576,320.380676 
	C550.897522,308.543457 566.409180,299.892639 584.200562,296.194641 
	C595.630981,293.818817 607.472351,293.472046 619.097351,291.967407 
	C634.336304,289.995056 645.961975,281.782349 654.950684,269.807556 
	C663.280457,258.710663 666.050415,246.082626 665.170776,232.147675 
	C664.294739,218.268936 658.837891,206.590088 649.408630,197.186020 
	C634.790955,182.607361 616.619324,178.256638 596.433594,181.996704 
	C571.020813,186.705276 551.633972,210.181808 551.887085,236.958328 
	C551.956299,244.281113 551.482666,251.810867 549.826477,258.911713 
	C543.972839,284.009674 531.834656,305.377472 511.617035,322.030792 
	C491.467377,338.628082 468.293579,346.802490 442.585663,347.798737 
	C434.727570,348.103271 426.720306,346.336700 418.878571,344.963593 
	C392.460083,340.337708 371.395477,326.293091 354.721893,305.980469 
	C337.710632,285.256409 330.493805,260.688324 329.982330,234.021271 
	C329.631317,215.718536 321.407288,201.559021 306.723297,190.989197 
	C295.725891,183.073029 283.374237,180.566269 269.912994,180.860992 
	C251.462723,181.264954 236.939743,189.393784 226.422150,203.525833 
	C212.221909,222.606094 211.839127,248.681442 225.098907,268.226288 
	C234.035019,281.398041 246.250580,290.084747 262.506409,291.978271 
	C269.648163,292.810181 276.819214,293.417786 283.988495,293.980530 
	C299.027130,295.161011 312.846649,300.018982 325.906891,307.402649 
	C340.906616,315.882874 353.490814,326.947632 363.034729,341.368286 
	C379.031067,365.538361 385.715759,391.729858 381.090851,420.688904 
	C378.586243,436.371735 373.160919,450.731750 364.536285,463.993622 
	C357.194489,475.282959 347.707764,484.525208 336.623474,493.032593 
M2468.000000,477.500000 
	C2472.477051,481.648193 2477.032715,485.715027 2481.416260,489.959717 
	C2494.774170,502.894409 2508.109131,515.853760 2521.338867,528.919128 
	C2523.465576,531.019348 2525.459229,532.102844 2528.606934,532.086853 
	C2557.595459,531.939453 2586.584961,532.003418 2615.574219,531.989441 
	C2616.949219,531.988770 2618.324463,531.834412 2620.614990,531.696472 
	C2594.085693,507.444580 2568.267578,483.842896 2542.118164,459.938232 
	C2546.268799,458.365662 2549.405273,457.217224 2552.512451,455.993378 
	C2568.237305,449.799347 2581.417236,440.477448 2591.314453,426.410858 
	C2602.935791,409.894348 2606.292480,391.065247 2606.712158,371.747162 
	C2606.957275,360.470215 2605.263672,348.922729 2602.791260,337.866150 
	C2598.592285,319.090363 2588.478027,303.862457 2572.365479,292.703278 
	C2550.879395,277.822937 2526.291016,272.634644 2501.165527,272.299957 
	C2434.701904,271.414764 2368.218506,272.000000 2301.743164,272.000000 
	C2300.289307,272.000000 2298.835449,272.000000 2297.349854,272.000000 
	C2297.349854,358.905731 2297.349854,445.405975 2297.349854,531.654785 
	C2320.434570,531.654785 2343.168945,531.654785 2366.289795,531.654785 
	C2366.289795,509.908325 2366.289795,488.505798 2366.289795,467.000000 
	C2392.165771,467.000000 2417.664551,467.517761 2443.124512,466.747070 
	C2453.418701,466.435455 2461.507812,468.475067 2468.000000,477.500000 
M1717.000122,351.301788 
	C1717.000122,350.699554 1717.000122,350.097321 1717.000122,348.171814 
	C1726.368042,358.715027 1735.000000,368.271881 1743.453247,377.984314 
	C1753.552368,389.587677 1763.467773,401.350525 1773.521484,412.993683 
	C1780.487305,421.060699 1787.603760,428.997650 1794.560059,437.072784 
	C1804.383423,448.476135 1814.078369,459.990326 1823.909668,471.386780 
	C1831.088501,479.708405 1838.465820,487.859070 1845.634155,496.189606 
	C1855.126099,507.220825 1864.404053,518.438477 1874.034668,529.345703 
	C1875.402832,530.895203 1878.236572,531.879089 1880.398193,531.890076 
	C1911.891235,532.050232 1943.385254,532.000000 1974.879150,532.000000 
	C1976.154419,532.000000 1977.429688,532.000000 1978.767578,532.000000 
	C1978.767578,445.114685 1978.767578,358.721497 1978.767578,272.232117 
	C1955.465698,272.232117 1932.397095,272.232117 1908.934570,272.232117 
	C1908.934570,332.825897 1908.934570,393.189026 1908.934570,454.938751 
	C1905.360962,450.774628 1902.639526,447.586243 1899.899658,444.413696 
	C1887.160645,429.663330 1874.414917,414.918854 1861.675171,400.169189 
	C1849.044189,385.545624 1836.420532,370.915771 1823.788330,356.293243 
	C1813.189087,344.024139 1802.581055,331.762543 1791.979370,319.495605 
	C1779.235352,304.749878 1766.483887,290.010529 1753.761597,275.246094 
	C1751.841553,273.017792 1749.805298,271.883636 1746.573486,271.900604 
	C1715.080444,272.065765 1683.586304,272.000000 1652.092407,272.000000 
	C1650.819946,272.000000 1649.547363,272.000000 1648.242554,272.000000 
	C1648.242554,358.905487 1648.242554,445.298706 1648.242554,531.757812 
	C1671.221313,531.757812 1693.956787,531.757812 1717.000000,531.757812 
	C1717.000000,471.729004 1717.000000,411.941925 1717.000122,351.301788 
M3650.964844,317.385895 
	C3643.809814,331.255096 3636.557373,345.075195 3629.517822,359.002686 
	C3607.089111,403.375885 3584.724609,447.781464 3562.368652,492.191345 
	C3555.806885,505.226593 3549.355957,518.317749 3542.547607,532.000000 
	C3544.824463,532.000000 3546.435547,532.000000 3548.046631,532.000000 
	C3570.704590,532.000000 3593.364746,531.834778 3616.018555,532.144531 
	C3620.362305,532.203857 3622.013184,530.389771 3623.564697,527.004700 
	C3631.378662,509.954468 3639.329102,492.966705 3647.211426,476.000061 
	C3692.096924,476.000061 3736.574951,475.960449 3781.052002,476.156403 
	C3782.696777,476.163605 3785.063721,478.116364 3785.858398,479.759796 
	C3794.229492,497.074341 3802.349121,514.510559 3810.446045,531.717468 
	C3836.382080,531.717468 3862.114746,531.717468 3888.895264,531.717468 
	C3845.178223,444.747040 3801.785645,358.422028 3758.392822,272.096741 
	C3730.020508,272.096741 3701.709961,272.096741 3673.527344,272.096741 
	C3665.986572,287.022949 3658.510742,301.820587 3650.964844,317.385895 
M1528.035156,319.384216 
	C1520.446777,304.481750 1512.908203,289.553375 1505.180054,274.723877 
	C1504.529663,273.476196 1502.609741,272.121368 1501.272583,272.113953 
	C1473.957642,271.962463 1446.641602,272.000214 1419.553467,272.000214 
	C1375.838013,358.654572 1332.253418,445.049591 1288.388794,531.999695 
	C1314.388550,531.999695 1339.373169,532.032410 1364.357056,531.900635 
	C1365.574219,531.894226 1367.378296,530.730225 1367.908325,529.625305 
	C1376.447876,511.824615 1384.825073,493.945984 1393.199829,476.168518 
	C1393.935669,476.097656 1394.429810,476.008484 1394.924072,476.008392 
	C1438.741699,476.001190 1482.559448,476.052063 1526.376587,475.899780 
	C1529.770142,475.888000 1530.850586,477.483643 1532.033569,480.013580 
	C1540.122803,497.311798 1548.305298,514.566345 1556.440674,531.798889 
	C1582.258423,531.798889 1608.032837,531.798889 1634.361694,531.798889 
	C1633.671143,529.972412 1633.248047,528.440979 1632.543945,527.051941 
	C1621.197632,504.669098 1609.714600,482.355042 1598.462158,459.925323 
	C1575.078979,413.314819 1551.813721,366.645264 1528.035156,319.384216 
M2171.000000,479.500000 
	C2171.000000,432.407837 2171.000000,385.315704 2171.000000,337.827759 
	C2203.971436,337.827759 2236.376465,337.827759 2268.712402,337.827759 
	C2268.712402,315.690979 2268.712402,293.953491 2268.712402,272.282898 
	C2181.358887,272.282898 2094.292969,272.282898 2007.285156,272.282898 
	C2007.285156,294.304504 2007.285156,316.042023 2007.285156,338.174622 
	C2038.973511,338.174622 2070.378662,338.174622 2102.173828,338.174622 
	C2102.173828,402.973419 2102.173828,467.375122 2102.173828,531.713684 
	C2125.306885,531.713684 2148.044434,531.713684 2171.000000,531.713684 
	C2171.000000,514.452209 2171.000000,497.476105 2171.000000,479.500000 
M2633.000000,310.500000 
	C2633.000000,384.257874 2633.000000,458.015747 2633.000000,531.714417 
	C2656.638428,531.714417 2679.709473,531.714417 2702.716797,531.714417 
	C2702.716797,445.028076 2702.716797,358.627594 2702.716797,272.285583 
	C2679.361572,272.285583 2656.290527,272.285583 2633.000000,272.285583 
	C2633.000000,284.880066 2633.000000,297.190033 2633.000000,310.500000 
M3971.000000,505.500000 
	C3971.000000,427.742371 3971.000000,349.984772 3971.000000,272.285278 
	C3947.695557,272.285278 3924.957764,272.285278 3902.282715,272.285278 
	C3902.282715,358.971283 3902.282715,445.371735 3902.282715,531.714722 
	C3925.304443,531.714722 3948.042236,531.714722 3971.000000,531.714722 
	C3971.000000,523.120911 3971.000000,514.810425 3971.000000,505.500000 
M505.480255,532.981201 
	C501.261475,525.147949 495.666504,518.606262 488.647644,513.001648 
	C471.484070,499.296478 452.354004,493.874146 430.513031,496.899933 
	C411.498047,499.534210 396.158020,508.061493 383.746613,522.635315 
	C371.988220,536.442444 366.612244,552.559875 366.178406,570.250183 
	C365.933167,580.248596 367.983704,590.149536 371.963043,599.557983 
	C379.510742,617.403259 392.130737,630.483398 409.465210,638.670898 
	C424.002869,645.537537 439.553192,646.717102 455.341553,643.974243 
	C468.659027,641.660706 480.600708,636.026123 490.452942,626.882812 
	C509.340881,609.354065 518.238770,587.860474 515.087402,561.755188 
	C513.870056,551.670654 511.149719,542.256104 505.480255,532.981201 
M201.028427,378.797119 
	C196.339935,394.056885 195.294357,409.472656 200.075806,424.844696 
	C205.720490,442.992004 216.380554,457.330505 232.792969,467.467072 
	C246.020111,475.636322 260.155548,478.555115 275.519592,478.112701 
	C292.963531,477.610474 308.285980,471.682037 320.999420,460.273438 
	C342.015930,441.413971 349.964355,417.613647 345.026672,389.635803 
	C340.867523,366.069061 327.373535,349.101440 307.014557,337.733429 
	C293.300842,330.076019 278.303467,327.724945 262.358826,329.818207 
	C244.529190,332.158966 229.650452,339.636963 217.307724,352.310181 
	C210.156723,359.652649 205.142883,368.519135 201.028427,378.797119 
M516.000061,238.432831 
	C515.561401,233.041885 515.697510,227.528397 514.578735,222.282516 
	C510.903076,205.047318 502.592072,190.518021 488.763550,179.189056 
	C470.808167,164.479156 450.240204,159.407349 427.776184,163.264297 
	C411.830963,166.001984 398.149841,173.727356 386.730225,185.626648 
	C369.547363,203.531296 364.257538,225.295120 367.332947,248.780350 
	C369.867493,268.135162 379.826416,284.208374 395.726349,296.315002 
	C412.792664,309.309723 432.102753,313.763763 452.868713,310.796295 
	C469.822998,308.373566 484.246124,300.331238 496.062073,287.553925 
	C508.718658,273.867554 514.921326,257.746674 516.000061,238.432831 
M598.470764,329.999756 
	C584.286682,331.658539 571.548523,337.232758 561.098389,346.618225 
	C537.579468,367.741089 529.626160,393.904205 537.943420,424.724823 
	C543.793396,446.403107 557.413635,461.746490 577.149780,471.470367 
	C591.718750,478.648499 607.494019,479.793304 623.435425,476.975555 
	C647.344543,472.749512 664.660767,459.206299 675.885132,438.072083 
	C683.466125,423.797821 685.561096,408.405029 683.089172,392.267731 
	C680.653931,376.369049 673.767273,362.842621 662.789673,351.362732 
	C651.853088,339.925720 638.282837,332.809143 622.807556,330.238739 
	C615.195312,328.974396 607.201965,330.004639 598.470764,329.999756 
M3459.863525,534.973083 
	C3465.171875,534.982971 3470.547119,535.540833 3475.776367,534.902954 
	C3493.490723,532.742126 3507.457031,516.280701 3507.943359,497.843597 
	C3508.295410,484.500092 3502.912354,473.506958 3492.110596,465.754395 
	C3480.637451,457.520081 3468.085693,455.977509 3454.533691,460.828949 
	C3437.779541,466.826630 3427.542236,486.580505 3430.803955,503.765625 
	C3433.605225,518.526245 3445.396484,531.304871 3459.863525,534.973083 
z"/>
<path fill="#000000" opacity="1.000000" stroke="none" 
	d="
M3086.733887,457.689087 
	C3100.078125,431.006470 3113.098389,404.586853 3126.326660,378.271759 
	C3143.460938,344.186737 3160.823730,310.216461 3177.884521,276.095184 
	C3179.462646,272.939178 3181.066406,271.899445 3184.506104,271.919647 
	C3209.836670,272.068390 3235.169434,272.069397 3260.500000,271.918549 
	C3263.947266,271.898010 3265.549561,272.945496 3267.112305,276.103607 
	C3286.963135,316.212158 3306.943115,356.257111 3327.042969,396.241638 
	C3349.524658,440.964111 3372.162598,485.607910 3394.720947,530.291870 
	C3394.858154,530.563599 3394.831299,530.918335 3394.954834,531.701721 
	C3394.054688,531.802795 3393.177002,531.986816 3392.299316,531.987366 
	C3368.467773,532.003052 3344.634521,531.865356 3320.805908,532.136963 
	C3316.981934,532.180481 3316.301758,530.177063 3315.102539,527.624817 
	C3307.930176,512.359497 3300.248291,497.315765 3293.639893,481.813019 
	C3291.413330,476.589569 3288.740967,475.877533 3283.857910,475.898224 
	C3242.028320,476.075653 3200.197266,476.045197 3158.367432,475.912445 
	C3155.093018,475.902069 3153.337891,476.781128 3151.966309,479.762878 
	C3143.975098,497.133606 3135.813477,514.426208 3127.590576,532.000000 
	C3125.404297,532.000000 3123.085205,532.000000 3120.766113,532.000000 
	C3070.103027,532.000000 3019.436523,531.713501 2968.780029,532.293884 
	C2960.729492,532.386047 2956.500000,528.995239 2952.209961,523.661743 
	C2944.958984,514.647705 2937.631104,505.694885 2930.261475,496.777344 
	C2920.383057,484.823212 2910.442139,472.920624 2900.513184,461.008545 
	C2893.718994,452.857788 2886.962158,444.674072 2880.012451,436.657776 
	C2879.123779,435.632507 2877.172607,435.074646 2875.710449,435.068237 
	C2853.381348,434.970215 2831.051270,435.000031 2808.322754,435.000031 
	C2808.322754,467.138977 2808.322754,499.211273 2808.322754,531.641479 
	C2784.857910,531.641479 2761.785156,531.641479 2738.355957,531.641479 
	C2738.355957,445.518066 2738.355957,359.116791 2738.355957,272.357666 
	C2761.143799,272.357666 2784.216553,272.357666 2807.688721,272.357666 
	C2807.688721,304.150513 2807.688721,336.222778 2807.688721,368.663940 
	C2809.308350,368.795715 2810.563721,368.985779 2811.819092,368.986877 
	C2832.817627,369.005249 2853.816650,369.055542 2874.813965,368.896362 
	C2876.525146,368.883392 2878.749023,367.845886 2879.851318,366.539215 
	C2894.900146,348.695984 2909.748291,330.683685 2924.741211,312.793121 
	C2934.196533,301.510345 2944.355713,290.766968 2953.133789,278.987823 
	C2957.817871,272.702576 2962.993408,271.804535 2969.931152,271.880585 
	C2996.747070,272.174561 3023.568359,272.000000 3051.334229,272.000000 
	C3013.787109,315.549377 2976.688721,358.578003 2939.422119,401.801880 
	C2976.337158,444.583649 3012.899170,486.956482 3049.968750,529.917358 
	C3062.393555,505.458344 3074.448242,481.728485 3086.733887,457.689087 
M3243.491943,413.000000 
	C3247.935059,413.000000 3252.377930,413.000000 3257.699463,413.000000 
	C3256.719727,408.272461 3256.443359,403.984161 3254.916260,400.200439 
	C3251.979492,392.921783 3248.305908,385.941986 3244.989502,378.814331 
	C3238.297607,364.431976 3231.659424,350.024323 3224.925293,335.661652 
	C3224.443115,334.632904 3223.360596,333.885651 3222.556885,333.007568 
	C3221.723633,333.849945 3220.594727,334.550751 3220.110840,335.560547 
	C3218.522461,338.877106 3217.286377,342.362183 3215.703125,345.681549 
	C3208.174561,361.466675 3200.546143,377.204071 3193.017822,392.989349 
	C3189.933838,399.456146 3187.013428,406.001038 3183.793457,413.000000 
	C3203.661621,413.000000 3223.078369,413.000000 3243.491943,413.000000 
z"/>
<path fill="#000000" opacity="1.000000" stroke="none" 
	d="
M871.000000,500.000000 
	C871.000000,423.866425 871.000000,348.232819 871.000000,272.299683 
	C908.604858,272.299683 946.018005,272.299683 983.738892,272.299683 
	C1013.265869,333.034943 1042.909790,394.010803 1073.289795,456.500641 
	C1103.356812,394.441528 1132.935547,333.390289 1162.581421,272.200317 
	C1200.069092,272.200317 1237.838379,272.200317 1275.803589,272.200317 
	C1275.803589,358.794189 1275.803589,445.187714 1275.803589,531.790649 
	C1252.556763,531.790649 1229.488037,531.790649 1206.114014,531.790649 
	C1206.114014,471.194611 1206.114014,410.762207 1206.114014,350.213654 
	C1203.038086,351.390198 1167.394775,425.596924 1160.789429,440.383148 
	C1147.040039,471.161957 1132.103516,501.410461 1117.596436,531.999939 
	C1088.717773,531.999939 1059.896362,532.034119 1031.075562,531.891907 
	C1029.732422,531.885254 1027.733398,530.618835 1027.155640,529.407166 
	C1014.922058,503.750763 1002.871216,478.007416 990.736816,452.303558 
	C982.304077,434.440887 973.749390,416.635712 965.343079,398.760651 
	C958.376953,383.947968 951.563232,369.063629 944.630676,354.235016 
	C944.055847,353.005493 943.088745,351.959381 941.354126,351.078613 
	C941.354126,411.195770 941.354126,471.312927 941.354126,531.714355 
	C917.711487,531.714355 894.642212,531.714355 871.000000,531.714355 
	C871.000000,521.359070 871.000000,510.929535 871.000000,500.000000 
z"/>
<path fill="#000000" opacity="1.000000" stroke="none" 
	d="
M336.988159,493.001221 
	C347.707764,484.525208 357.194489,475.282959 364.536285,463.993622 
	C373.160919,450.731750 378.586243,436.371735 381.090851,420.688904 
	C385.715759,391.729858 379.031067,365.538361 363.034729,341.368286 
	C353.490814,326.947632 340.906616,315.882874 325.906891,307.402649 
	C312.846649,300.018982 299.027130,295.161011 283.988495,293.980530 
	C276.819214,293.417786 269.648163,292.810181 262.506409,291.978271 
	C246.250580,290.084747 234.035019,281.398041 225.098907,268.226288 
	C211.839127,248.681442 212.221909,222.606094 226.422150,203.525833 
	C236.939743,189.393784 251.462723,181.264954 269.912994,180.860992 
	C283.374237,180.566269 295.725891,183.073029 306.723297,190.989197 
	C321.407288,201.559021 329.631317,215.718536 329.982330,234.021271 
	C330.493805,260.688324 337.710632,285.256409 354.721893,305.980469 
	C371.395477,326.293091 392.460083,340.337708 418.878571,344.963593 
	C426.720306,346.336700 434.727570,348.103271 442.585663,347.798737 
	C468.293579,346.802490 491.467377,338.628082 511.617035,322.030792 
	C531.834656,305.377472 543.972839,284.009674 549.826477,258.911713 
	C551.482666,251.810867 551.956299,244.281113 551.887085,236.958328 
	C551.633972,210.181808 571.020813,186.705276 596.433594,181.996704 
	C616.619324,178.256638 634.790955,182.607361 649.408630,197.186020 
	C658.837891,206.590088 664.294739,218.268936 665.170776,232.147675 
	C666.050415,246.082626 663.280457,258.710663 654.950684,269.807556 
	C645.961975,281.782349 634.336304,289.995056 619.097351,291.967407 
	C607.472351,293.472046 595.630981,293.818817 584.200562,296.194641 
	C566.409180,299.892639 550.897522,308.543457 536.965576,320.380676 
	C521.715576,333.337830 511.200104,349.363922 504.640900,367.964813 
	C498.915894,384.200104 497.737610,400.981628 499.853790,418.180359 
	C502.159241,436.917084 509.144470,453.581543 520.014709,468.737396 
	C528.980469,481.237823 540.284119,491.209229 553.495239,499.170776 
	C566.822693,507.202362 581.365845,511.448975 596.517639,513.917969 
	C601.362305,514.707397 606.354370,515.069702 611.259277,514.930664 
	C634.659424,514.267517 655.991882,530.895813 662.837463,552.853882 
	C670.470886,577.339050 662.232544,605.076050 637.732849,619.073364 
	C626.029907,625.759644 613.865234,628.180420 600.434448,626.103577 
	C575.717346,622.281555 560.424500,608.096863 553.367798,584.600098 
	C552.169495,580.609863 552.118713,576.189514 552.052246,571.959839 
	C551.770935,554.049133 548.256165,536.842529 539.921326,520.974365 
	C523.621826,489.942505 498.164124,469.803864 464.060760,462.269348 
	C433.537750,455.525818 404.583618,461.784363 378.632080,479.239410 
	C362.711151,489.947906 350.337952,504.289093 341.868500,521.658936 
	C335.750366,534.206360 331.987610,547.377075 330.838837,561.450012 
	C329.884979,573.134888 330.578552,585.213257 324.496857,596.098389 
	C315.051331,613.004272 301.356659,623.229126 281.842529,626.136719 
	C261.734039,629.132812 244.828049,623.422058 230.863739,609.200989 
	C221.249405,599.409851 216.515091,587.337097 215.880386,573.393616 
	C215.142822,557.189758 220.247910,543.133484 231.125381,531.691956 
	C240.681870,521.640015 252.691605,515.289551 267.132629,515.002136 
	C285.954681,514.627502 304.200409,511.480377 321.127045,502.896454 
	C326.562164,500.140228 331.472839,496.349823 336.988159,493.001221 
z"/>
<path fill="#000000" opacity="1.000000" stroke="none" 
	d="
M2467.750000,477.249939 
	C2461.507812,468.475067 2453.418701,466.435455 2443.124512,466.747070 
	C2417.664551,467.517761 2392.165771,467.000000 2366.289795,467.000000 
	C2366.289795,488.505798 2366.289795,509.908325 2366.289795,531.654785 
	C2343.168945,531.654785 2320.434570,531.654785 2297.349854,531.654785 
	C2297.349854,445.405975 2297.349854,358.905731 2297.349854,272.000000 
	C2298.835449,272.000000 2300.289307,272.000000 2301.743164,272.000000 
	C2368.218506,272.000000 2434.701904,271.414764 2501.165527,272.299957 
	C2526.291016,272.634644 2550.879395,277.822937 2572.365479,292.703278 
	C2588.478027,303.862457 2598.592285,319.090363 2602.791260,337.866150 
	C2605.263672,348.922729 2606.957275,360.470215 2606.712158,371.747162 
	C2606.292480,391.065247 2602.935791,409.894348 2591.314453,426.410858 
	C2581.417236,440.477448 2568.237305,449.799347 2552.512451,455.993378 
	C2549.405273,457.217224 2546.268799,458.365662 2542.118164,459.938232 
	C2568.267578,483.842896 2594.085693,507.444580 2620.614990,531.696472 
	C2618.324463,531.834412 2616.949219,531.988770 2615.574219,531.989441 
	C2586.584961,532.003418 2557.595459,531.939453 2528.606934,532.086853 
	C2525.459229,532.102844 2523.465576,531.019348 2521.338867,528.919128 
	C2508.109131,515.853760 2494.774170,502.894409 2481.416260,489.959717 
	C2477.032715,485.715027 2472.477051,481.648193 2467.750000,477.249939 
M2533.000000,376.105316 
	C2533.000000,372.272186 2533.050537,368.438232 2532.990479,364.606049 
	C2532.824707,354.043152 2526.953613,344.974609 2516.438477,342.157257 
	C2508.522461,340.036316 2500.237305,338.261993 2492.097900,338.181244 
	C2451.937744,337.782715 2411.771484,338.000000 2371.607422,338.000000 
	C2369.832520,338.000000 2368.057617,338.000000 2366.253906,338.000000 
	C2366.253906,359.240448 2366.253906,379.978088 2366.253906,401.000000 
	C2368.134766,401.000000 2369.773682,401.000000 2371.412842,401.000000 
	C2407.577148,401.000000 2443.742188,401.133514 2479.905273,400.908447 
	C2489.236328,400.850372 2498.625488,400.143066 2507.872314,398.883881 
	C2520.782959,397.125732 2530.076416,390.562469 2533.000000,376.105316 
z"/>
<path fill="#000000" opacity="1.000000" stroke="none" 
	d="
M1717.000000,351.728333 
	C1717.000000,411.941925 1717.000000,471.729004 1717.000000,531.757812 
	C1693.956787,531.757812 1671.221313,531.757812 1648.242554,531.757812 
	C1648.242554,445.298706 1648.242554,358.905487 1648.242554,272.000000 
	C1649.547363,272.000000 1650.819946,272.000000 1652.092407,272.000000 
	C1683.586304,272.000000 1715.080444,272.065765 1746.573486,271.900604 
	C1749.805298,271.883636 1751.841553,273.017792 1753.761597,275.246094 
	C1766.483887,290.010529 1779.235352,304.749878 1791.979370,319.495605 
	C1802.581055,331.762543 1813.189087,344.024139 1823.788330,356.293243 
	C1836.420532,370.915771 1849.044189,385.545624 1861.675171,400.169189 
	C1874.414917,414.918854 1887.160645,429.663330 1899.899658,444.413696 
	C1902.639526,447.586243 1905.360962,450.774628 1908.934570,454.938751 
	C1908.934570,393.189026 1908.934570,332.825897 1908.934570,272.232117 
	C1932.397095,272.232117 1955.465698,272.232117 1978.767578,272.232117 
	C1978.767578,358.721497 1978.767578,445.114685 1978.767578,532.000000 
	C1977.429688,532.000000 1976.154419,532.000000 1974.879150,532.000000 
	C1943.385254,532.000000 1911.891235,532.050232 1880.398193,531.890076 
	C1878.236572,531.879089 1875.402832,530.895203 1874.034668,529.345703 
	C1864.404053,518.438477 1855.126099,507.220825 1845.634155,496.189606 
	C1838.465820,487.859070 1831.088501,479.708405 1823.909668,471.386780 
	C1814.078369,459.990326 1804.383423,448.476135 1794.560059,437.072784 
	C1787.603760,428.997650 1780.487305,421.060699 1773.521484,412.993683 
	C1763.467773,401.350525 1753.552368,389.587677 1743.453247,377.984314 
	C1735.000000,368.271881 1726.368042,358.715027 1717.000122,348.171814 
	C1717.000122,350.097321 1717.000122,350.699554 1717.000000,351.728333 
z"/>
<path fill="#000000" opacity="1.000000" stroke="none" 
	d="
M3651.000000,317.002075 
	C3658.510742,301.820587 3665.986572,287.022949 3673.527344,272.096741 
	C3701.709961,272.096741 3730.020508,272.096741 3758.392822,272.096741 
	C3801.785645,358.422028 3845.178223,444.747040 3888.895264,531.717468 
	C3862.114746,531.717468 3836.382080,531.717468 3810.446045,531.717468 
	C3802.349121,514.510559 3794.229492,497.074341 3785.858398,479.759796 
	C3785.063721,478.116364 3782.696777,476.163605 3781.052002,476.156403 
	C3736.574951,475.960449 3692.096924,476.000061 3647.211426,476.000061 
	C3639.329102,492.966705 3631.378662,509.954468 3623.564697,527.004700 
	C3622.013184,530.389771 3620.362305,532.203857 3616.018555,532.144531 
	C3593.364746,531.834778 3570.704590,532.000000 3548.046631,532.000000 
	C3546.435547,532.000000 3544.824463,532.000000 3542.547607,532.000000 
	C3549.355957,518.317749 3555.806885,505.226593 3562.368652,492.191345 
	C3584.724609,447.781464 3607.089111,403.375885 3629.517822,359.002686 
	C3636.557373,345.075195 3643.809814,331.255096 3651.000000,317.002075 
M3735.958740,373.539001 
	C3729.538818,359.876709 3723.118896,346.214447 3716.698975,332.552185 
	C3716.147949,332.613159 3715.597168,332.674103 3715.046387,332.735077 
	C3702.461914,359.388519 3689.877686,386.041962 3677.340332,412.595886 
	C3702.966797,412.595886 3728.428223,412.595886 3754.363770,412.595886 
	C3748.088379,399.492889 3742.059570,386.905182 3735.958740,373.539001 
z"/>
<path fill="#000000" opacity="1.000000" stroke="none" 
	d="
M1528.267578,319.692139 
	C1551.813721,366.645264 1575.078979,413.314819 1598.462158,459.925323 
	C1609.714600,482.355042 1621.197632,504.669098 1632.543945,527.051941 
	C1633.248047,528.440979 1633.671143,529.972412 1634.361694,531.798889 
	C1608.032837,531.798889 1582.258423,531.798889 1556.440674,531.798889 
	C1548.305298,514.566345 1540.122803,497.311798 1532.033569,480.013580 
	C1530.850586,477.483643 1529.770142,475.888000 1526.376587,475.899780 
	C1482.559448,476.052063 1438.741699,476.001190 1394.924072,476.008392 
	C1394.429810,476.008484 1393.935669,476.097656 1393.199829,476.168518 
	C1384.825073,493.945984 1376.447876,511.824615 1367.908325,529.625305 
	C1367.378296,530.730225 1365.574219,531.894226 1364.357056,531.900635 
	C1339.373169,532.032410 1314.388550,531.999695 1288.388794,531.999695 
	C1332.253418,445.049591 1375.838013,358.654572 1419.553467,272.000214 
	C1446.641602,272.000214 1473.957642,271.962463 1501.272583,272.113953 
	C1502.609741,272.121368 1504.529663,273.476196 1505.180054,274.723877 
	C1512.908203,289.553375 1520.446777,304.481750 1528.267578,319.692139 
M1456.493774,342.005646 
	C1445.404785,365.577942 1434.315918,389.150238 1423.248779,412.676392 
	C1449.086182,412.676392 1474.462280,412.676392 1500.197998,412.676392 
	C1487.552856,385.703278 1475.098633,359.137421 1462.644409,332.571594 
	C1462.160767,332.652100 1461.677246,332.732635 1461.193726,332.813171 
	C1459.783813,335.671783 1458.373901,338.530396 1456.493774,342.005646 
z"/>
<path fill="#000000" opacity="1.000000" stroke="none" 
	d="
M2171.000000,480.000000 
	C2171.000000,497.476105 2171.000000,514.452209 2171.000000,531.713684 
	C2148.044434,531.713684 2125.306885,531.713684 2102.173828,531.713684 
	C2102.173828,467.375122 2102.173828,402.973419 2102.173828,338.174622 
	C2070.378662,338.174622 2038.973511,338.174622 2007.285156,338.174622 
	C2007.285156,316.042023 2007.285156,294.304504 2007.285156,272.282898 
	C2094.292969,272.282898 2181.358887,272.282898 2268.712402,272.282898 
	C2268.712402,293.953491 2268.712402,315.690979 2268.712402,337.827759 
	C2236.376465,337.827759 2203.971436,337.827759 2171.000000,337.827759 
	C2171.000000,385.315704 2171.000000,432.407837 2171.000000,480.000000 
z"/>
<path fill="#000000" opacity="1.000000" stroke="none" 
	d="
M2633.000000,310.000000 
	C2633.000000,297.190033 2633.000000,284.880066 2633.000000,272.285583 
	C2656.290527,272.285583 2679.361572,272.285583 2702.716797,272.285583 
	C2702.716797,358.627594 2702.716797,445.028076 2702.716797,531.714417 
	C2679.709473,531.714417 2656.638428,531.714417 2633.000000,531.714417 
	C2633.000000,458.015747 2633.000000,384.257874 2633.000000,310.000000 
z"/>
<path fill="#000000" opacity="1.000000" stroke="none" 
	d="
M3971.000000,506.000000 
	C3971.000000,514.810425 3971.000000,523.120911 3971.000000,531.714722 
	C3948.042236,531.714722 3925.304443,531.714722 3902.282715,531.714722 
	C3902.282715,445.371735 3902.282715,358.971283 3902.282715,272.285278 
	C3924.957764,272.285278 3947.695557,272.285278 3971.000000,272.285278 
	C3971.000000,349.984772 3971.000000,427.742371 3971.000000,506.000000 
z"/>
<path fill="#000000" opacity="1.000000" stroke="none" 
	d="
M505.747314,533.251953 
	C511.149719,542.256104 513.870056,551.670654 515.087402,561.755188 
	C518.238770,587.860474 509.340881,609.354065 490.452942,626.882812 
	C480.600708,636.026123 468.659027,641.660706 455.341553,643.974243 
	C439.553192,646.717102 424.002869,645.537537 409.465210,638.670898 
	C392.130737,630.483398 379.510742,617.403259 371.963043,599.557983 
	C367.983704,590.149536 365.933167,580.248596 366.178406,570.250183 
	C366.612244,552.559875 371.988220,536.442444 383.746613,522.635315 
	C396.158020,508.061493 411.498047,499.534210 430.513031,496.899933 
	C452.354004,493.874146 471.484070,499.296478 488.647644,513.001648 
	C495.666504,518.606262 501.261475,525.147949 505.747314,533.251953 
z"/>
<path fill="#000000" opacity="1.000000" stroke="none" 
	d="
M201.217377,378.435364 
	C205.142883,368.519135 210.156723,359.652649 217.307724,352.310181 
	C229.650452,339.636963 244.529190,332.158966 262.358826,329.818207 
	C278.303467,327.724945 293.300842,330.076019 307.014557,337.733429 
	C327.373535,349.101440 340.867523,366.069061 345.026672,389.635803 
	C349.964355,417.613647 342.015930,441.413971 320.999420,460.273438 
	C308.285980,471.682037 292.963531,477.610474 275.519592,478.112701 
	C260.155548,478.555115 246.020111,475.636322 232.792969,467.467072 
	C216.380554,457.330505 205.720490,442.992004 200.075806,424.844696 
	C195.294357,409.472656 196.339935,394.056885 201.217377,378.435364 
z"/>
<path fill="#000000" opacity="1.000000" stroke="none" 
	d="
M516.000000,238.910019 
	C514.921326,257.746674 508.718658,273.867554 496.062073,287.553925 
	C484.246124,300.331238 469.822998,308.373566 452.868713,310.796295 
	C432.102753,313.763763 412.792664,309.309723 395.726349,296.315002 
	C379.826416,284.208374 369.867493,268.135162 367.332947,248.780350 
	C364.257538,225.295120 369.547363,203.531296 386.730225,185.626648 
	C398.149841,173.727356 411.830963,166.001984 427.776184,163.264297 
	C450.240204,159.407349 470.808167,164.479156 488.763550,179.189056 
	C502.592072,190.518021 510.903076,205.047318 514.578735,222.282516 
	C515.697510,227.528397 515.561401,233.041885 516.000000,238.910019 
z"/>
<path fill="#000000" opacity="1.000000" stroke="none" 
	d="
M598.925903,329.998108 
	C607.201965,330.004639 615.195312,328.974396 622.807556,330.238739 
	C638.282837,332.809143 651.853088,339.925720 662.789673,351.362732 
	C673.767273,362.842621 680.653931,376.369049 683.089172,392.267731 
	C685.561096,408.405029 683.466125,423.797821 675.885132,438.072083 
	C664.660767,459.206299 647.344543,472.749512 623.435425,476.975555 
	C607.494019,479.793304 591.718750,478.648499 577.149780,471.470367 
	C557.413635,461.746490 543.793396,446.403107 537.943420,424.724823 
	C529.626160,393.904205 537.579468,367.741089 561.098389,346.618225 
	C571.548523,337.232758 584.286682,331.658539 598.925903,329.998108 
z"/>
<path fill="#000000" opacity="1.000000" stroke="none" 
	d="
M3459.474609,534.789795 
	C3445.396484,531.304871 3433.605225,518.526245 3430.803955,503.765625 
	C3427.542236,486.580505 3437.779541,466.826630 3454.533691,460.828949 
	C3468.085693,455.977509 3480.637451,457.520081 3492.110596,465.754395 
	C3502.912354,473.506958 3508.295410,484.500092 3507.943359,497.843597 
	C3507.457031,516.280701 3493.490723,532.742126 3475.776367,534.902954 
	C3470.547119,535.540833 3465.171875,534.982971 3459.474609,534.789795 
z"/>
<path fill="#FFFFFF" opacity="1.000000" stroke="none" 
	d="
M3242.993652,413.000000 
	C3223.078369,413.000000 3203.661621,413.000000 3183.793457,413.000000 
	C3187.013428,406.001038 3189.933838,399.456146 3193.017822,392.989349 
	C3200.546143,377.204071 3208.174561,361.466675 3215.703125,345.681549 
	C3217.286377,342.362183 3218.522461,338.877106 3220.110840,335.560547 
	C3220.594727,334.550751 3221.723633,333.849945 3222.556885,333.007568 
	C3223.360596,333.885651 3224.443115,334.632904 3224.925293,335.661652 
	C3231.659424,350.024323 3238.297607,364.431976 3244.989502,378.814331 
	C3248.305908,385.941986 3251.979492,392.921783 3254.916260,400.200439 
	C3256.443359,403.984161 3256.719727,408.272461 3257.699463,413.000000 
	C3252.377930,413.000000 3247.935059,413.000000 3242.993652,413.000000 
z"/>
<path fill="#FFFFFF" opacity="1.000000" stroke="none" 
	d="
M2532.999512,376.558533 
	C2530.076416,390.562469 2520.782959,397.125732 2507.872314,398.883881 
	C2498.625488,400.143066 2489.236328,400.850372 2479.905273,400.908447 
	C2443.742188,401.133514 2407.577148,401.000000 2371.412842,401.000000 
	C2369.773682,401.000000 2368.134766,401.000000 2366.253906,401.000000 
	C2366.253906,379.978088 2366.253906,359.240448 2366.253906,338.000000 
	C2368.057617,338.000000 2369.832520,338.000000 2371.607422,338.000000 
	C2411.771484,338.000000 2451.937744,337.782715 2492.097900,338.181244 
	C2500.237305,338.261993 2508.522461,340.036316 2516.438477,342.157257 
	C2526.953613,344.974609 2532.824707,354.043152 2532.990479,364.606049 
	C2533.050537,368.438232 2533.000000,372.272186 2532.999512,376.558533 
z"/>
<path fill="#FFFFFF" opacity="1.000000" stroke="none" 
	d="
M3735.994629,373.928223 
	C3742.059570,386.905182 3748.088379,399.492889 3754.363770,412.595886 
	C3728.428223,412.595886 3702.966797,412.595886 3677.340332,412.595886 
	C3689.877686,386.041962 3702.461914,359.388519 3715.046387,332.735077 
	C3715.597168,332.674103 3716.147949,332.613159 3716.698975,332.552185 
	C3723.118896,346.214447 3729.538818,359.876709 3735.994629,373.928223 
z"/>
<path fill="#FFFFFF" opacity="1.000000" stroke="none" 
	d="
M1456.728882,341.697327 
	C1458.373901,338.530396 1459.783813,335.671783 1461.193726,332.813171 
	C1461.677246,332.732635 1462.160767,332.652100 1462.644409,332.571594 
	C1475.098633,359.137421 1487.552856,385.703278 1500.197998,412.676392 
	C1474.462280,412.676392 1449.086182,412.676392 1423.248779,412.676392 
	C1434.315918,389.150238 1445.404785,365.577942 1456.728882,341.697327 
z"/>
</svg>