<svg version="1.1" id="Layer_1" xmlns="http://www.w3.org/2000/svg" xmlns:xlink="http://www.w3.org/1999/xlink" x="0px" y="0px"
	 width="100%" viewBox="0 0 4167 806" enable-background="new 0 0 4167 806" xml:space="preserve">
<path fill="#FFFFFF" opacity="1.000000" stroke="none" 
	d="
M3052.000000,807.000000 
	C2034.666626,807.000000 1017.833313,807.000000 1.000000,807.000000 
	C1.000000,538.333313 1.000000,269.666656 1.000000,1.000000 
	C1390.000000,1.000000 2779.000000,1.000000 4168.000000,1.000000 
	C4168.000000,269.666656 4168.000000,538.333313 4168.000000,807.000000 
	C3796.166748,807.000000 3424.333252,807.000000 3052.000000,807.000000 
M2847.500000,435.000000 
	C2856.834229,435.000031 2866.169434,434.935883 2875.501709,435.065308 
	C2876.998291,435.086060 2879.010254,435.515259 2879.888916,436.530365 
	C2886.968018,444.707367 2893.842529,453.062012 2900.760986,461.377777 
	C2910.397705,472.960541 2920.034180,484.543762 2929.641113,496.151184 
	C2937.153320,505.227448 2944.652588,514.314941 2952.096680,523.447205 
	C2956.384277,528.707397 2960.485596,532.379211 2968.606445,532.289062 
	C3019.925049,531.719177 3071.253662,531.929138 3122.577881,532.137207 
	C3126.601562,532.153503 3128.419189,530.714233 3129.907715,527.494995 
	C3137.130615,511.874786 3144.620605,496.374359 3151.573975,480.636200 
	C3153.334961,476.650482 3155.606689,475.921021 3159.458984,475.931183 
	C3201.118652,476.041412 3242.778809,476.071930 3284.437988,475.898865 
	C3289.067871,475.879639 3291.393555,476.786285 3293.463379,481.537750 
	C3300.272949,497.168610 3308.161621,512.326172 3315.190918,527.866821 
	C3316.704102,531.212402 3318.279541,532.086121 3321.653076,532.067322 
	C3344.648682,531.938843 3367.645020,532.004089 3390.641357,531.989990 
	C3392.040527,531.989136 3393.439697,531.844238 3395.074219,531.753235 
	C3394.754883,530.825317 3394.651855,530.360840 3394.444580,529.948669 
	C3371.842773,485.021393 3349.193848,440.117615 3326.635742,395.168396 
	C3306.698486,355.442169 3286.830811,315.680939 3267.046631,275.878448 
	C3265.600342,272.968994 3263.987305,271.895721 3260.679688,271.915588 
	C3235.184814,272.068939 3209.688232,272.040833 3184.192871,271.944885 
	C3181.227051,271.933746 3179.441650,272.645325 3178.009766,275.508911 
	C3160.542480,310.446503 3142.930176,345.311646 3125.360352,380.197968 
	C3102.370850,425.844971 3079.385498,471.494049 3056.399658,517.142700 
	C3054.387939,521.138367 3052.384277,525.138123 3049.927246,530.030640 
	C3047.765381,527.626282 3046.063721,525.829956 3044.469482,523.943176 
	C3039.285889,517.809204 3034.219727,511.574249 3028.964111,505.502869 
	C3019.599854,494.684631 3010.060791,484.017456 3000.721924,473.177490 
	C2989.154297,459.750824 2977.730713,446.200043 2966.217041,432.726654 
	C2958.109375,423.239258 2950.085938,413.673584 2941.727051,404.411469 
	C2939.705811,402.171753 2940.200195,400.603241 2941.596191,398.982056 
	C2950.715332,388.392120 2959.936768,377.890106 2969.135742,367.368835 
	C2976.280762,359.196106 2983.512451,351.097809 2990.579346,342.858215 
	C3001.901367,329.657898 3013.080566,316.335022 3024.393311,303.126801 
	C3033.115479,292.942841 3041.950195,282.855255 3051.363525,272.000000 
	C3048.857178,272.000000 3047.263672,272.000000 3045.670410,272.000000 
	C3019.841309,272.000000 2994.010254,272.155121 2968.184082,271.887390 
	C2961.981934,271.823090 2956.914062,272.471771 2953.744873,278.611572 
	C2952.498047,281.027679 2950.254150,282.932617 2948.447266,285.055908 
	C2938.874512,296.303467 2929.229736,307.490509 2919.736572,318.804993 
	C2906.468994,334.617889 2893.248291,350.471375 2880.189941,366.456726 
	C2878.514404,368.507538 2876.942627,369.052460 2874.518311,369.043518 
	C2853.855225,368.967529 2833.191895,369.005219 2812.528564,368.988617 
	C2811.093994,368.987488 2809.659668,368.824219 2807.774902,368.708801 
	C2807.774902,336.303070 2807.774902,304.242798 2807.774902,272.384338 
	C2784.236084,272.384338 2761.176025,272.384338 2738.229980,272.384338 
	C2738.229980,359.035583 2738.229980,445.302368 2738.229980,531.736938 
	C2761.518799,531.736938 2784.577148,531.736938 2808.112305,531.736938 
	C2808.112305,499.416901 2808.112305,467.356445 2808.112305,435.000000 
	C2821.224854,435.000000 2833.862549,435.000000 2847.500000,435.000000 
M1007.940613,487.728333 
	C1008.055359,488.375031 1008.034546,489.085602 1008.304749,489.659058 
	C1014.537354,502.886993 1020.713013,516.143738 1027.191040,529.250977 
	C1027.871338,530.627441 1030.365356,531.875366 1032.025635,531.885132 
	C1059.355591,532.046814 1086.687012,531.956177 1114.017578,532.068542 
	C1116.714233,532.079651 1117.962280,531.283875 1119.105835,528.818298 
	C1126.896484,512.020874 1134.870972,495.308441 1142.824219,478.586639 
	C1153.990967,455.108551 1165.210938,431.655762 1176.369873,408.173950 
	C1184.944824,390.129578 1193.441162,372.047913 1202.037720,354.013977 
	C1202.763550,352.491364 1203.984131,351.204590 1204.974976,349.808258 
	C1205.354980,349.996704 1205.735107,350.185150 1206.115234,350.373596 
	C1206.115234,410.789978 1206.115234,471.206329 1206.115234,531.708984 
	C1229.572632,531.708984 1252.632568,531.708984 1275.679688,531.708984 
	C1275.679688,445.028381 1275.679688,358.639099 1275.679688,272.000000 
	C1273.551147,272.000000 1271.736572,272.000000 1269.922119,272.000000 
	C1237.424927,272.000000 1204.925171,272.221283 1172.432739,271.828369 
	C1165.233154,271.741333 1161.602417,273.243011 1158.426636,280.525757 
	C1149.011108,302.116943 1138.247192,323.122284 1127.932007,344.318420 
	C1115.333984,370.205383 1102.643311,396.047089 1090.023682,421.923523 
	C1087.390015,427.323883 1084.953735,432.820526 1082.315308,438.218475 
	C1079.508301,443.961334 1076.569214,449.639679 1073.217529,456.277863 
	C1072.331299,454.480103 1072.062866,453.946991 1071.804199,453.409149 
	C1063.774048,436.712280 1055.781372,419.997223 1047.706787,403.321869 
	C1035.800903,378.734589 1023.868042,354.160217 1011.886841,329.609528 
	C1003.181396,311.771240 994.307251,294.014862 985.690613,276.134125 
	C984.235718,273.115143 982.682373,271.884094 979.140137,271.900970 
	C944.643921,272.065521 910.146606,271.997314 875.649597,272.009216 
	C874.205139,272.009705 872.760620,272.145569 871.306030,272.218903 
	C871.306030,358.943176 871.306030,445.332367 871.306030,531.658813 
	C894.674194,531.658813 917.734680,531.658813 941.237671,531.658813 
	C941.237671,471.286743 941.237671,411.254822 941.237671,351.222900 
	C941.705200,351.055603 942.172729,350.888275 942.640259,350.720978 
	C943.769653,353.204224 944.864990,355.703613 946.033752,358.168152 
	C955.012695,377.101990 963.972168,396.045166 973.003235,414.954132 
	C984.489258,439.003021 996.036865,463.022491 1007.940613,487.728333 
M292.572449,183.915237 
	C281.946198,179.750412 270.972412,180.085678 260.081177,182.062958 
	C236.973038,186.258148 218.865372,206.126099 216.127792,229.338593 
	C214.349045,244.420792 217.410629,258.729370 227.028198,270.998901 
	C235.923447,282.346954 247.221069,290.004822 261.769897,291.949127 
	C269.077087,292.925659 276.454010,293.420502 283.811462,293.972137 
	C298.821411,295.097534 312.627747,299.901520 325.667145,307.241608 
	C340.756134,315.735352 353.471558,326.831146 363.034210,341.330933 
	C376.959442,362.445557 384.182098,385.334167 382.127991,410.963989 
	C381.246521,421.962585 378.985535,432.387238 375.169098,442.734772 
	C365.089874,470.062927 346.285736,489.462219 321.065338,502.885162 
	C304.027863,511.952881 285.325470,514.565918 266.206787,515.059326 
	C252.085876,515.423706 240.291229,521.906555 230.955338,531.845703 
	C220.054276,543.451050 215.083038,557.643433 215.891083,573.931152 
	C216.714951,590.537170 223.330261,604.517395 236.144348,614.241455 
	C256.790649,629.909180 279.441650,631.798889 302.550903,619.032898 
	C315.763367,611.734131 324.843323,600.754211 327.878845,585.913330 
	C330.095734,575.074768 330.550598,563.885071 332.022980,552.882996 
	C334.846191,531.786865 344.110107,513.503662 357.958801,497.725922 
	C373.900940,479.563202 393.849823,467.844025 417.672852,462.566956 
	C433.392700,459.084869 449.085938,458.827881 464.544342,462.409088 
	C493.560608,469.131195 516.754272,484.914398 533.323792,509.880463 
	C543.461548,525.155396 549.873657,541.802490 551.035583,560.296448 
	C551.487549,567.490112 551.853699,574.741211 553.076111,581.825134 
	C557.681091,608.511230 580.382324,625.676331 605.951660,626.910645 
	C624.307129,627.796692 639.914246,621.270935 652.157837,607.324341 
	C661.374573,596.825684 665.693909,584.144897 665.699890,570.581909 
	C665.703918,561.484314 663.909729,552.187378 659.021667,543.916016 
	C648.462830,526.048584 633.488220,515.532349 612.240356,514.969727 
	C606.974304,514.830322 601.648132,514.742310 596.470825,513.892456 
	C582.017761,511.519775 568.108704,507.566284 555.229919,500.131500 
	C541.210693,492.038269 529.379211,481.688049 519.960327,468.598511 
	C509.051056,453.437744 502.081360,436.767761 499.833893,418.022491 
	C497.765839,400.773376 499.010284,384.002838 504.811279,367.663757 
	C511.425995,349.032623 521.974609,333.107849 537.185608,320.181305 
	C550.974609,308.463165 566.388306,299.921936 583.979614,296.205811 
	C595.440247,293.784821 607.327576,293.416443 619.006409,291.987061 
	C634.246765,290.121796 645.898926,281.865021 654.852539,270.067261 
	C663.244507,259.009583 666.118774,246.205399 665.182251,232.132401 
	C664.251038,218.139099 658.639832,206.516418 649.207092,196.936096 
	C635.625000,183.141403 618.156799,178.446060 599.555542,181.249313 
	C571.884338,185.419464 552.306763,208.107269 551.910278,236.187195 
	C551.801697,243.875259 551.471252,251.749847 549.743652,259.190826 
	C543.906921,284.330597 531.604004,305.662170 511.353210,322.255554 
	C490.867584,339.041382 467.295288,347.181427 441.161987,347.808563 
	C432.752838,348.010376 424.073669,346.826874 415.890472,344.784668 
	C387.915527,337.803223 365.396057,322.338989 349.249115,298.413879 
	C338.163330,281.987854 331.484863,263.788361 330.965576,243.656281 
	C330.821198,238.059479 330.979614,232.317520 329.786957,226.909485 
	C325.243103,206.305603 313.539246,191.488449 292.572449,183.915237 
M2584.529053,303.020355 
	C2580.682129,299.679504 2577.089111,295.978668 2572.946045,293.058136 
	C2551.491699,277.935455 2526.671143,272.610229 2501.320801,272.286469 
	C2434.855713,271.437622 2368.372559,272.000000 2301.896729,272.000000 
	C2300.315186,272.000000 2298.733398,272.000000 2297.369629,272.000000 
	C2297.369629,359.104248 2297.369629,445.476868 2297.369629,531.778687 
	C2320.344238,531.778687 2342.948730,531.778687 2366.025879,531.778687 
	C2366.025879,510.170502 2366.025879,488.776978 2366.025879,467.375214 
	C2366.948975,467.194092 2367.414307,467.023163 2367.879639,467.022888 
	C2396.869141,467.006439 2425.858887,466.971771 2454.847900,467.087982 
	C2456.419189,467.094269 2458.312988,468.019379 2459.500244,469.118225 
	C2466.918457,475.983704 2474.222168,482.974854 2481.480713,490.010345 
	C2494.840088,502.959625 2508.068115,516.045898 2521.556152,528.859009 
	C2523.340820,530.554443 2526.321533,531.850403 2528.758789,531.867859 
	C2557.413574,532.073730 2586.070312,532.000000 2614.726562,532.000000 
	C2616.310059,532.000000 2617.893555,532.000000 2620.931641,532.000000 
	C2594.068604,507.433533 2568.255859,483.827789 2542.106201,459.913666 
	C2546.404053,458.327393 2549.618164,457.234253 2552.761230,455.965088 
	C2568.204834,449.729401 2581.312500,440.576660 2591.116455,426.751465 
	C2602.979980,410.022644 2605.970459,390.882172 2606.840820,371.227417 
	C2607.164062,363.920288 2605.798584,356.518768 2604.983154,349.184814 
	C2603.063232,331.919434 2596.586914,316.605560 2584.529053,303.020355 
M1897.488037,441.991486 
	C1896.043457,440.213257 1894.654541,438.386200 1893.145386,436.664673 
	C1883.383179,425.530487 1873.513550,414.489380 1863.835938,403.282318 
	C1852.252686,389.868256 1840.853882,376.294922 1829.322998,362.835297 
	C1818.957642,350.735779 1808.530273,338.689087 1798.114258,326.633026 
	C1783.183838,309.351532 1768.308350,292.021240 1753.189087,274.906403 
	C1751.716797,273.239868 1748.706665,272.134430 1746.402466,272.121094 
	C1715.240845,271.940704 1684.077637,272.000000 1652.914917,272.000000 
	C1651.331177,272.000000 1649.747437,272.000000 1648.385376,272.000000 
	C1648.385376,359.106903 1648.385376,445.494110 1648.385376,531.757141 
	C1671.379883,531.757141 1693.988403,531.757141 1717.098999,531.757141 
	C1717.098999,470.844635 1717.098999,410.172791 1717.098999,348.233368 
	C1726.543457,358.905396 1735.212646,368.551483 1743.711792,378.345123 
	C1753.392212,389.499969 1762.877075,400.824371 1772.529907,412.003387 
	C1779.841675,420.471558 1787.343506,428.775696 1794.652832,437.245972 
	C1804.302124,448.427856 1813.798462,459.741821 1823.450439,470.921326 
	C1830.761963,479.390015 1838.284180,487.676788 1845.586304,496.153442 
	C1855.008911,507.091644 1864.197632,518.233826 1873.769409,529.038208 
	C1875.249878,530.709473 1878.231812,531.863281 1880.527588,531.876648 
	C1911.855835,532.059875 1943.185669,532.003479 1974.515015,531.988647 
	C1975.945923,531.987976 1977.376831,531.822754 1978.639404,531.744507 
	C1978.639404,444.942596 1978.639404,358.555542 1978.639404,272.218048 
	C1955.336548,272.218048 1932.394897,272.218048 1908.957642,272.218048 
	C1908.957642,332.778992 1908.957642,393.124359 1908.957642,454.849548 
	C1904.703491,450.054993 1901.351562,446.277374 1897.488037,441.991486 
M3648.502686,321.997467 
	C3613.251709,391.779785 3578.000732,461.562103 3542.418457,532.000000 
	C3567.361328,532.000000 3591.177979,531.815125 3614.987305,532.147217 
	C3620.088135,532.218323 3622.124756,530.175049 3624.028320,525.972839 
	C3631.274658,509.976532 3638.805908,494.107697 3646.437256,478.291077 
	C3647.000977,477.122528 3649.203369,476.098328 3650.646484,476.094482 
	C3693.962158,475.978882 3737.278076,475.967102 3780.593262,476.128784 
	C3782.238525,476.134888 3784.686279,477.634735 3785.394287,479.098999 
	C3793.182129,495.200989 3800.744629,511.413116 3808.246826,527.651367 
	C3809.603760,530.588135 3811.019043,532.155212 3814.753906,532.116943 
	C3837.575684,531.883057 3860.400879,532.006165 3883.225098,531.986267 
	C3884.770752,531.984924 3886.316650,531.787292 3888.602295,531.630066 
	C3887.582275,529.475220 3886.930664,528.019348 3886.214111,526.596008 
	C3869.793213,493.978882 3853.310791,461.392456 3836.951416,428.744446 
	C3811.516602,377.985748 3786.164795,327.185425 3760.774902,276.404236 
	C3759.538818,273.931610 3758.605225,271.835571 3754.813721,271.871338 
	C3728.826660,272.116699 3702.835938,272.028900 3676.846680,271.953003 
	C3674.410645,271.945892 3673.085449,272.585754 3671.946533,274.923676 
	C3664.380859,290.458130 3656.612549,305.893768 3648.502686,321.997467 
M1402.060303,306.623352 
	C1396.777344,316.888275 1391.416870,327.114197 1386.225220,337.425079 
	C1366.101318,377.392242 1346.039062,417.390228 1325.937378,457.368530 
	C1318.037964,473.079041 1310.065430,488.752899 1302.182373,504.471649 
	C1297.688354,513.432556 1293.308228,522.450562 1288.603271,531.997559 
	C1314.455322,531.997559 1339.578857,532.025635 1364.701660,531.902893 
	C1365.797485,531.897583 1367.404297,530.758240 1367.901489,529.726990 
	C1375.939331,513.052734 1383.891357,496.336212 1391.704224,479.555481 
	C1392.873657,477.044006 1394.041992,475.906891 1397.059937,475.915588 
	C1440.041748,476.039429 1483.024048,476.035919 1526.005859,475.925507 
	C1529.134766,475.917450 1530.726074,476.959503 1532.001587,479.715240 
	C1540.049438,497.102142 1548.238037,514.423889 1556.397827,531.804565 
	C1582.182373,531.804565 1607.962646,531.804565 1634.472778,531.804565 
	C1633.598145,529.798401 1632.985229,528.184143 1632.212158,526.650635 
	C1620.713623,503.844269 1609.166016,481.062592 1597.684814,458.247559 
	C1567.103027,397.476990 1536.526978,336.703583 1506.046875,275.882050 
	C1504.593628,272.982056 1503.000732,271.855957 1499.685303,271.912598 
	C1487.027588,272.128967 1474.363892,272.000000 1461.702515,272.000000 
	C1447.569336,272.000000 1433.436279,272.000000 1419.498901,272.000000 
	C1413.716797,283.564850 1408.108398,294.782440 1402.060303,306.623352 
M2102.000000,394.500000 
	C2102.000000,440.246368 2102.000000,485.992767 2102.000000,531.656982 
	C2125.352539,531.656982 2148.075684,531.656982 2171.255127,531.656982 
	C2171.255127,466.934174 2171.255127,402.553345 2171.255127,337.704468 
	C2204.103516,337.704468 2236.493408,337.704468 2268.763672,337.704468 
	C2268.763672,315.626923 2268.763672,294.021545 2268.763672,272.243164 
	C2181.486328,272.243164 2094.445557,272.243164 2007.272705,272.243164 
	C2007.272705,294.209930 2007.272705,315.932678 2007.272705,338.126160 
	C2038.932251,338.126160 2070.322510,338.126160 2102.000000,338.126160 
	C2102.000000,356.897644 2102.000000,375.198822 2102.000000,394.500000 
M2703.000000,366.500000 
	C2703.000000,335.090179 2703.000000,303.680359 2703.000000,272.329834 
	C2679.330566,272.329834 2656.279053,272.329834 2633.308105,272.329834 
	C2633.308105,359.015381 2633.308105,445.370789 2633.308105,531.670288 
	C2656.669189,531.670288 2679.720459,531.670288 2703.000000,531.670288 
	C2703.000000,476.727264 2703.000000,422.113647 2703.000000,366.500000 
M3902.000000,394.500000 
	C3902.000000,440.229919 3902.000000,485.959808 3902.000000,531.581421 
	C3925.414062,531.581421 3948.118164,531.581421 3970.734619,531.581421 
	C3970.734619,444.938385 3970.734619,358.714203 3970.734619,272.330139 
	C3947.765137,272.330139 3925.062256,272.330139 3902.453369,272.330139 
	C3902.255615,272.963593 3902.076904,273.269897 3902.076660,273.576385 
	C3902.042725,313.550934 3902.021729,353.525452 3902.000000,394.500000 
M375.070221,534.732361 
	C369.331573,546.373596 365.518616,558.749451 366.284698,571.640015 
	C366.848206,581.122009 368.821411,590.923706 372.294342,599.745239 
	C379.499603,618.047058 392.717316,631.108582 410.936584,639.141052 
	C422.099731,644.062561 433.631622,645.472473 445.629059,645.027344 
	C463.280701,644.372437 478.654022,637.914062 491.360565,625.968811 
	C509.847626,608.589478 518.062988,587.211365 515.111206,561.583618 
	C513.192200,544.922607 506.554230,530.612610 495.089142,518.778137 
	C483.124542,506.428070 468.535400,498.985260 451.096252,496.765656 
	C433.194763,494.487213 416.843475,497.957428 401.495422,507.029144 
	C390.327393,513.630127 382.277191,523.280396 375.070221,534.732361 
M302.512268,472.121765 
	C314.231415,466.694611 324.138641,459.013824 331.884674,448.612396 
	C344.514496,431.653046 348.650452,412.403259 345.716492,391.884674 
	C343.325928,375.166229 335.366760,361.002594 322.886475,349.268860 
	C304.311218,331.804779 282.277161,326.021606 257.800232,330.345245 
	C240.048141,333.481018 224.951508,342.185455 213.634018,356.807709 
	C198.122818,376.848267 193.447754,399.015350 199.833862,423.527344 
	C203.785507,438.695099 212.023956,451.244568 223.880203,461.264008 
	C235.144592,470.783295 248.275757,476.691162 263.052002,477.904144 
	C276.302521,478.991852 289.418823,477.824677 302.512268,472.121765 
M458.909668,309.568909 
	C473.145233,305.993835 485.266785,298.947784 495.375793,288.196075 
	C512.875244,269.584015 519.078735,247.507919 514.668274,222.774963 
	C511.596832,205.551025 503.001831,191.067062 489.270935,179.644775 
	C471.295685,164.691803 450.693542,159.264648 428.099457,163.268326 
	C406.426727,167.108704 389.183350,178.557617 377.621643,197.769882 
	C363.531433,221.183807 362.806030,245.524979 374.139618,269.869995 
	C383.924530,290.888306 401.113190,303.908386 423.494476,309.584076 
	C430.106049,311.260712 437.153320,311.606842 444.018829,311.760162 
	C448.703888,311.864777 453.420074,310.576477 458.909668,309.568909 
M614.256897,329.000275 
	C609.154724,329.328583 604.038208,329.511902 598.953003,330.012634 
	C584.432312,331.442383 571.649902,337.369598 560.857239,346.828186 
	C543.193054,362.308929 534.377502,381.852478 534.870850,405.737793 
	C535.280518,425.566681 542.508301,442.400879 556.003906,456.258118 
	C570.907227,471.560852 589.416992,478.630035 611.109253,478.143555 
	C632.975159,477.653107 650.813782,469.501007 665.241821,453.283813 
	C682.671936,433.692261 687.648193,410.849213 681.836853,385.798065 
	C678.073547,369.575195 669.458374,356.010925 656.127686,345.419983 
	C644.007446,335.790680 630.276978,330.881866 614.256897,329.000275 
M3430.000000,497.454193 
	C3431.137695,519.603027 3447.459229,536.215515 3469.678467,535.862122 
	C3490.911865,535.524475 3507.803955,518.690430 3507.904053,496.814575 
	C3508.003662,475.039215 3491.346924,458.669861 3470.118408,458.207581 
	C3447.205811,457.708679 3431.311523,473.294678 3430.000000,497.454193 
z"/>
<path fill="#185895" opacity="1.000000" stroke="none" 
	d="
M2847.000000,435.000000 
	C2833.862549,435.000000 2821.224854,435.000000 2808.112305,435.000000 
	C2808.112305,467.356445 2808.112305,499.416901 2808.112305,531.736938 
	C2784.577148,531.736938 2761.518799,531.736938 2738.229980,531.736938 
	C2738.229980,445.302368 2738.229980,359.035583 2738.229980,272.384338 
	C2761.176025,272.384338 2784.236084,272.384338 2807.774902,272.384338 
	C2807.774902,304.242798 2807.774902,336.303070 2807.774902,368.708801 
	C2809.659668,368.824219 2811.093994,368.987488 2812.528564,368.988617 
	C2833.191895,369.005219 2853.855225,368.967529 2874.518311,369.043518 
	C2876.942627,369.052460 2878.514404,368.507538 2880.189941,366.456726 
	C2893.248291,350.471375 2906.468994,334.617889 2919.736572,318.804993 
	C2929.229736,307.490509 2938.874512,296.303467 2948.447266,285.055908 
	C2950.254150,282.932617 2952.498047,281.027679 2953.744873,278.611572 
	C2956.914062,272.471771 2961.981934,271.823090 2968.184082,271.887390 
	C2994.010254,272.155121 3019.841309,272.000000 3045.670410,272.000000 
	C3047.263672,272.000000 3048.857178,272.000000 3051.363525,272.000000 
	C3041.950195,282.855255 3033.115479,292.942841 3024.393311,303.126801 
	C3013.080566,316.335022 3001.901367,329.657898 2990.579346,342.858215 
	C2983.512451,351.097809 2976.280762,359.196106 2969.135742,367.368835 
	C2959.936768,377.890106 2950.715332,388.392120 2941.596191,398.982056 
	C2940.200195,400.603241 2939.705811,402.171753 2941.727051,404.411469 
	C2950.085938,413.673584 2958.109375,423.239258 2966.217041,432.726654 
	C2977.730713,446.200043 2989.154297,459.750824 3000.721924,473.177490 
	C3010.060791,484.017456 3019.599854,494.684631 3028.964111,505.502869 
	C3034.219727,511.574249 3039.285889,517.809204 3044.469482,523.943176 
	C3046.063721,525.829956 3047.765381,527.626282 3049.927246,530.030640 
	C3052.384277,525.138123 3054.387939,521.138367 3056.399658,517.142700 
	C3079.385498,471.494049 3102.370850,425.844971 3125.360352,380.197968 
	C3142.930176,345.311646 3160.542480,310.446503 3178.009766,275.508911 
	C3179.441650,272.645325 3181.227051,271.933746 3184.192871,271.944885 
	C3209.688232,272.040833 3235.184814,272.068939 3260.679688,271.915588 
	C3263.987305,271.895721 3265.600342,272.968994 3267.046631,275.878448 
	C3286.830811,315.680939 3306.698486,355.442169 3326.635742,395.168396 
	C3349.193848,440.117615 3371.842773,485.021393 3394.444580,529.948669 
	C3394.651855,530.360840 3394.754883,530.825317 3395.074219,531.753235 
	C3393.439697,531.844238 3392.040527,531.989136 3390.641357,531.989990 
	C3367.645020,532.004089 3344.648682,531.938843 3321.653076,532.067322 
	C3318.279541,532.086121 3316.704102,531.212402 3315.190918,527.866821 
	C3308.161621,512.326172 3300.272949,497.168610 3293.463379,481.537750 
	C3291.393555,476.786285 3289.067871,475.879639 3284.437988,475.898865 
	C3242.778809,476.071930 3201.118652,476.041412 3159.458984,475.931183 
	C3155.606689,475.921021 3153.334961,476.650482 3151.573975,480.636200 
	C3144.620605,496.374359 3137.130615,511.874786 3129.907715,527.494995 
	C3128.419189,530.714233 3126.601562,532.153503 3122.577881,532.137207 
	C3071.253662,531.929138 3019.925049,531.719177 2968.606445,532.289062 
	C2960.485596,532.379211 2956.384277,528.707397 2952.096680,523.447205 
	C2944.652588,514.314941 2937.153320,505.227448 2929.641113,496.151184 
	C2920.034180,484.543762 2910.397705,472.960541 2900.760986,461.377777 
	C2893.842529,453.062012 2886.968018,444.707367 2879.888916,436.530365 
	C2879.010254,435.515259 2876.998291,435.086060 2875.501709,435.065308 
	C2866.169434,434.935883 2856.834229,435.000031 2847.000000,435.000000 
M3197.063721,384.606720 
	C3193.056641,393.375458 3189.049316,402.144196 3184.678711,411.708466 
	C3188.822510,412.268982 3191.523193,412.938843 3194.227051,412.951324 
	C3213.875244,413.041870 3233.523926,412.994476 3253.172607,413.007965 
	C3255.286865,413.009399 3257.810303,413.222626 3257.462891,410.166840 
	C3257.101074,406.985779 3256.523926,403.660828 3255.202393,400.783905 
	C3245.247803,379.112122 3235.096924,357.530487 3224.958496,335.943726 
	C3224.452393,334.866180 3223.493408,334.001251 3222.745605,333.037201 
	C3221.833496,334.003418 3220.599121,334.816986 3220.058105,335.959015 
	C3212.488770,351.941589 3205.013672,367.968781 3197.063721,384.606720 
z"/>
<path fill="#185895" opacity="1.000000" stroke="none" 
	d="
M1007.749268,487.391479 
	C996.036865,463.022491 984.489258,439.003021 973.003235,414.954132 
	C963.972168,396.045166 955.012695,377.101990 946.033752,358.168152 
	C944.864990,355.703613 943.769653,353.204224 942.640259,350.720978 
	C942.172729,350.888275 941.705200,351.055603 941.237671,351.222900 
	C941.237671,411.254822 941.237671,471.286743 941.237671,531.658813 
	C917.734680,531.658813 894.674194,531.658813 871.306030,531.658813 
	C871.306030,445.332367 871.306030,358.943176 871.306030,272.218903 
	C872.760620,272.145569 874.205139,272.009705 875.649597,272.009216 
	C910.146606,271.997314 944.643921,272.065521 979.140137,271.900970 
	C982.682373,271.884094 984.235718,273.115143 985.690613,276.134125 
	C994.307251,294.014862 1003.181396,311.771240 1011.886841,329.609528 
	C1023.868042,354.160217 1035.800903,378.734589 1047.706787,403.321869 
	C1055.781372,419.997223 1063.774048,436.712280 1071.804199,453.409149 
	C1072.062866,453.946991 1072.331299,454.480103 1073.217529,456.277863 
	C1076.569214,449.639679 1079.508301,443.961334 1082.315308,438.218475 
	C1084.953735,432.820526 1087.390015,427.323883 1090.023682,421.923523 
	C1102.643311,396.047089 1115.333984,370.205383 1127.932007,344.318420 
	C1138.247192,323.122284 1149.011108,302.116943 1158.426636,280.525757 
	C1161.602417,273.243011 1165.233154,271.741333 1172.432739,271.828369 
	C1204.925171,272.221283 1237.424927,272.000000 1269.922119,272.000000 
	C1271.736572,272.000000 1273.551147,272.000000 1275.679688,272.000000 
	C1275.679688,358.639099 1275.679688,445.028381 1275.679688,531.708984 
	C1252.632568,531.708984 1229.572632,531.708984 1206.115234,531.708984 
	C1206.115234,471.206329 1206.115234,410.789978 1206.115234,350.373596 
	C1205.735107,350.185150 1205.354980,349.996704 1204.974976,349.808258 
	C1203.984131,351.204590 1202.763550,352.491364 1202.037720,354.013977 
	C1193.441162,372.047913 1184.944824,390.129578 1176.369873,408.173950 
	C1165.210938,431.655762 1153.990967,455.108551 1142.824219,478.586639 
	C1134.870972,495.308441 1126.896484,512.020874 1119.105835,528.818298 
	C1117.962280,531.283875 1116.714233,532.079651 1114.017578,532.068542 
	C1086.687012,531.956177 1059.355591,532.046814 1032.025635,531.885132 
	C1030.365356,531.875366 1027.871338,530.627441 1027.191040,529.250977 
	C1020.713013,516.143738 1014.537354,502.886993 1008.304749,489.659058 
	C1008.034546,489.085602 1008.055359,488.375031 1007.749268,487.391479 
z"/>
<path fill="#185895" opacity="1.000000" stroke="none" 
	d="
M292.974487,183.954742 
	C313.539246,191.488449 325.243103,206.305603 329.786957,226.909485 
	C330.979614,232.317520 330.821198,238.059479 330.965576,243.656281 
	C331.484863,263.788361 338.163330,281.987854 349.249115,298.413879 
	C365.396057,322.338989 387.915527,337.803223 415.890472,344.784668 
	C424.073669,346.826874 432.752838,348.010376 441.161987,347.808563 
	C467.295288,347.181427 490.867584,339.041382 511.353210,322.255554 
	C531.604004,305.662170 543.906921,284.330597 549.743652,259.190826 
	C551.471252,251.749847 551.801697,243.875259 551.910278,236.187195 
	C552.306763,208.107269 571.884338,185.419464 599.555542,181.249313 
	C618.156799,178.446060 635.625000,183.141403 649.207092,196.936096 
	C658.639832,206.516418 664.251038,218.139099 665.182251,232.132401 
	C666.118774,246.205399 663.244507,259.009583 654.852539,270.067261 
	C645.898926,281.865021 634.246765,290.121796 619.006409,291.987061 
	C607.327576,293.416443 595.440247,293.784821 583.979614,296.205811 
	C566.388306,299.921936 550.974609,308.463165 537.185608,320.181305 
	C521.974609,333.107849 511.425995,349.032623 504.811279,367.663757 
	C499.010284,384.002838 497.765839,400.773376 499.833893,418.022491 
	C502.081360,436.767761 509.051056,453.437744 519.960327,468.598511 
	C529.379211,481.688049 541.210693,492.038269 555.229919,500.131500 
	C568.108704,507.566284 582.017761,511.519775 596.470825,513.892456 
	C601.648132,514.742310 606.974304,514.830322 612.240356,514.969727 
	C633.488220,515.532349 648.462830,526.048584 659.021667,543.916016 
	C663.909729,552.187378 665.703918,561.484314 665.699890,570.581909 
	C665.693909,584.144897 661.374573,596.825684 652.157837,607.324341 
	C639.914246,621.270935 624.307129,627.796692 605.951660,626.910645 
	C580.382324,625.676331 557.681091,608.511230 553.076111,581.825134 
	C551.853699,574.741211 551.487549,567.490112 551.035583,560.296448 
	C549.873657,541.802490 543.461548,525.155396 533.323792,509.880463 
	C516.754272,484.914398 493.560608,469.131195 464.544342,462.409088 
	C449.085938,458.827881 433.392700,459.084869 417.672852,462.566956 
	C393.849823,467.844025 373.900940,479.563202 357.958801,497.725922 
	C344.110107,513.503662 334.846191,531.786865 332.022980,552.882996 
	C330.550598,563.885071 330.095734,575.074768 327.878845,585.913330 
	C324.843323,600.754211 315.763367,611.734131 302.550903,619.032898 
	C279.441650,631.798889 256.790649,629.909180 236.144348,614.241455 
	C223.330261,604.517395 216.714951,590.537170 215.891083,573.931152 
	C215.083038,557.643433 220.054276,543.451050 230.955338,531.845703 
	C240.291229,521.906555 252.085876,515.423706 266.206787,515.059326 
	C285.325470,514.565918 304.027863,511.952881 321.065338,502.885162 
	C346.285736,489.462219 365.089874,470.062927 375.169098,442.734772 
	C378.985535,432.387238 381.246521,421.962585 382.127991,410.963989 
	C384.182098,385.334167 376.959442,362.445557 363.034210,341.330933 
	C353.471558,326.831146 340.756134,315.735352 325.667145,307.241608 
	C312.627747,299.901520 298.821411,295.097534 283.811462,293.972137 
	C276.454010,293.420502 269.077087,292.925659 261.769897,291.949127 
	C247.221069,290.004822 235.923447,282.346954 227.028198,270.998901 
	C217.410629,258.729370 214.349045,244.420792 216.127792,229.338593 
	C218.865372,206.126099 236.973038,186.258148 260.081177,182.062958 
	C270.972412,180.085678 281.946198,179.750412 292.974487,183.954742 
z"/>
<path fill="#185895" opacity="1.000000" stroke="none" 
	d="
M2584.776855,303.278076 
	C2596.586914,316.605560 2603.063232,331.919434 2604.983154,349.184814 
	C2605.798584,356.518768 2607.164062,363.920288 2606.840820,371.227417 
	C2605.970459,390.882172 2602.979980,410.022644 2591.116455,426.751465 
	C2581.312500,440.576660 2568.204834,449.729401 2552.761230,455.965088 
	C2549.618164,457.234253 2546.404053,458.327393 2542.106201,459.913666 
	C2568.255859,483.827789 2594.068604,507.433533 2620.931641,532.000000 
	C2617.893555,532.000000 2616.310059,532.000000 2614.726562,532.000000 
	C2586.070312,532.000000 2557.413574,532.073730 2528.758789,531.867859 
	C2526.321533,531.850403 2523.340820,530.554443 2521.556152,528.859009 
	C2508.068115,516.045898 2494.840088,502.959625 2481.480713,490.010345 
	C2474.222168,482.974854 2466.918457,475.983704 2459.500244,469.118225 
	C2458.312988,468.019379 2456.419189,467.094269 2454.847900,467.087982 
	C2425.858887,466.971771 2396.869141,467.006439 2367.879639,467.022888 
	C2367.414307,467.023163 2366.948975,467.194092 2366.025879,467.375214 
	C2366.025879,488.776978 2366.025879,510.170502 2366.025879,531.778687 
	C2342.948730,531.778687 2320.344238,531.778687 2297.369629,531.778687 
	C2297.369629,445.476868 2297.369629,359.104248 2297.369629,272.000000 
	C2298.733398,272.000000 2300.315186,272.000000 2301.896729,272.000000 
	C2368.372559,272.000000 2434.855713,271.437622 2501.320801,272.286469 
	C2526.671143,272.610229 2551.491699,277.935455 2572.946045,293.058136 
	C2577.089111,295.978668 2580.682129,299.679504 2584.776855,303.278076 
M2415.500000,338.000000 
	C2399.076904,338.000000 2382.653809,338.000000 2366.358154,338.000000 
	C2366.358154,359.379272 2366.358154,380.104919 2366.358154,401.000000 
	C2405.197266,401.000000 2443.679199,401.119568 2482.159180,400.908722 
	C2490.843994,400.861145 2499.593018,400.140930 2508.185791,398.871826 
	C2518.662109,397.324554 2527.873291,392.812439 2531.309082,381.926483 
	C2532.991455,376.596436 2532.819824,370.588013 2532.932129,364.875671 
	C2533.143799,354.095428 2526.878174,344.988373 2516.459961,342.157257 
	C2508.666504,340.039429 2500.508789,338.341888 2492.479248,338.183777 
	C2467.161377,337.685272 2441.827637,338.000000 2415.500000,338.000000 
z"/>
<path fill="#185895" opacity="1.000000" stroke="none" 
	d="
M1897.743896,442.245636 
	C1901.351562,446.277374 1904.703491,450.054993 1908.957642,454.849548 
	C1908.957642,393.124359 1908.957642,332.778992 1908.957642,272.218048 
	C1932.394897,272.218048 1955.336548,272.218048 1978.639404,272.218048 
	C1978.639404,358.555542 1978.639404,444.942596 1978.639404,531.744507 
	C1977.376831,531.822754 1975.945923,531.987976 1974.515015,531.988647 
	C1943.185669,532.003479 1911.855835,532.059875 1880.527588,531.876648 
	C1878.231812,531.863281 1875.249878,530.709473 1873.769409,529.038208 
	C1864.197632,518.233826 1855.008911,507.091644 1845.586304,496.153442 
	C1838.284180,487.676788 1830.761963,479.390015 1823.450439,470.921326 
	C1813.798462,459.741821 1804.302124,448.427856 1794.652832,437.245972 
	C1787.343506,428.775696 1779.841675,420.471558 1772.529907,412.003387 
	C1762.877075,400.824371 1753.392212,389.499969 1743.711792,378.345123 
	C1735.212646,368.551483 1726.543457,358.905396 1717.098999,348.233368 
	C1717.098999,410.172791 1717.098999,470.844635 1717.098999,531.757141 
	C1693.988403,531.757141 1671.379883,531.757141 1648.385376,531.757141 
	C1648.385376,445.494110 1648.385376,359.106903 1648.385376,272.000000 
	C1649.747437,272.000000 1651.331177,272.000000 1652.914917,272.000000 
	C1684.077637,272.000000 1715.240845,271.940704 1746.402466,272.121094 
	C1748.706665,272.134430 1751.716797,273.239868 1753.189087,274.906403 
	C1768.308350,292.021240 1783.183838,309.351532 1798.114258,326.633026 
	C1808.530273,338.689087 1818.957642,350.735779 1829.322998,362.835297 
	C1840.853882,376.294922 1852.252686,389.868256 1863.835938,403.282318 
	C1873.513550,414.489380 1883.383179,425.530487 1893.145386,436.664673 
	C1894.654541,438.386200 1896.043457,440.213257 1897.743896,442.245636 
z"/>
<path fill="#4CADB7" opacity="1.000000" stroke="none" 
	d="
M3648.706543,321.679504 
	C3656.612549,305.893768 3664.380859,290.458130 3671.946533,274.923676 
	C3673.085449,272.585754 3674.410645,271.945892 3676.846680,271.953003 
	C3702.835938,272.028900 3728.826660,272.116699 3754.813721,271.871338 
	C3758.605225,271.835571 3759.538818,273.931610 3760.774902,276.404236 
	C3786.164795,327.185425 3811.516602,377.985748 3836.951416,428.744446 
	C3853.310791,461.392456 3869.793213,493.978882 3886.214111,526.596008 
	C3886.930664,528.019348 3887.582275,529.475220 3888.602295,531.630066 
	C3886.316650,531.787292 3884.770752,531.984924 3883.225098,531.986267 
	C3860.400879,532.006165 3837.575684,531.883057 3814.753906,532.116943 
	C3811.019043,532.155212 3809.603760,530.588135 3808.246826,527.651367 
	C3800.744629,511.413116 3793.182129,495.200989 3785.394287,479.098999 
	C3784.686279,477.634735 3782.238525,476.134888 3780.593262,476.128784 
	C3737.278076,475.967102 3693.962158,475.978882 3650.646484,476.094482 
	C3649.203369,476.098328 3647.000977,477.122528 3646.437256,478.291077 
	C3638.805908,494.107697 3631.274658,509.976532 3624.028320,525.972839 
	C3622.124756,530.175049 3620.088135,532.218323 3614.987305,532.147217 
	C3591.177979,531.815125 3567.361328,532.000000 3542.418457,532.000000 
	C3578.000732,461.562103 3613.251709,391.779785 3648.706543,321.679504 
M3679.354980,412.998474 
	C3704.102783,412.998474 3728.850830,412.998474 3754.416016,412.998474 
	C3741.674316,385.791992 3729.246582,359.255493 3716.240723,331.484741 
	C3714.617432,334.226501 3713.698242,335.524414 3713.033936,336.941956 
	C3708.306152,347.032043 3703.687988,357.173859 3698.924072,367.246674 
	C3692.191895,381.481293 3685.343750,395.661072 3678.628418,409.903442 
	C3678.228027,410.752838 3678.561035,411.948120 3679.354980,412.998474 
z"/>
<path fill="#185895" opacity="1.000000" stroke="none" 
	d="
M1402.280151,306.311676 
	C1408.108398,294.782440 1413.716797,283.564850 1419.498901,272.000000 
	C1433.436279,272.000000 1447.569336,272.000000 1461.702515,272.000000 
	C1474.363892,272.000000 1487.027588,272.128967 1499.685303,271.912598 
	C1503.000732,271.855957 1504.593628,272.982056 1506.046875,275.882050 
	C1536.526978,336.703583 1567.103027,397.476990 1597.684814,458.247559 
	C1609.166016,481.062592 1620.713623,503.844269 1632.212158,526.650635 
	C1632.985229,528.184143 1633.598145,529.798401 1634.472778,531.804565 
	C1607.962646,531.804565 1582.182373,531.804565 1556.397827,531.804565 
	C1548.238037,514.423889 1540.049438,497.102142 1532.001587,479.715240 
	C1530.726074,476.959503 1529.134766,475.917450 1526.005859,475.925507 
	C1483.024048,476.035919 1440.041748,476.039429 1397.059937,475.915588 
	C1394.041992,475.906891 1392.873657,477.044006 1391.704224,479.555481 
	C1383.891357,496.336212 1375.939331,513.052734 1367.901489,529.726990 
	C1367.404297,530.758240 1365.797485,531.897583 1364.701660,531.902893 
	C1339.578857,532.025635 1314.455322,531.997559 1288.603271,531.997559 
	C1293.308228,522.450562 1297.688354,513.432556 1302.182373,504.471649 
	C1310.065430,488.752899 1318.037964,473.079041 1325.937378,457.368530 
	C1346.039062,417.390228 1366.101318,377.392242 1386.225220,337.425079 
	C1391.416870,327.114197 1396.777344,316.888275 1402.280151,306.311676 
M1432.941406,392.366821 
	C1429.712646,399.127808 1426.483765,405.888794 1423.270874,412.616241 
	C1449.181152,412.616241 1474.500977,412.616241 1500.166138,412.616241 
	C1487.521484,385.643280 1475.088379,359.121643 1462.124023,331.466858 
	C1460.531128,334.338745 1459.678101,335.701416 1458.990601,337.142975 
	C1450.334351,355.291656 1441.702026,373.451813 1432.941406,392.366821 
z"/>
<path fill="#185895" opacity="1.000000" stroke="none" 
	d="
M2102.000000,394.000000 
	C2102.000000,375.198822 2102.000000,356.897644 2102.000000,338.126160 
	C2070.322510,338.126160 2038.932251,338.126160 2007.272705,338.126160 
	C2007.272705,315.932678 2007.272705,294.209930 2007.272705,272.243164 
	C2094.445557,272.243164 2181.486328,272.243164 2268.763672,272.243164 
	C2268.763672,294.021545 2268.763672,315.626923 2268.763672,337.704468 
	C2236.493408,337.704468 2204.103516,337.704468 2171.255127,337.704468 
	C2171.255127,402.553345 2171.255127,466.934174 2171.255127,531.656982 
	C2148.075684,531.656982 2125.352539,531.656982 2102.000000,531.656982 
	C2102.000000,485.992767 2102.000000,440.246368 2102.000000,394.000000 
z"/>
<path fill="#185895" opacity="1.000000" stroke="none" 
	d="
M2703.000000,367.000000 
	C2703.000000,422.113647 2703.000000,476.727264 2703.000000,531.670288 
	C2679.720459,531.670288 2656.669189,531.670288 2633.308105,531.670288 
	C2633.308105,445.370789 2633.308105,359.015381 2633.308105,272.329834 
	C2656.279053,272.329834 2679.330566,272.329834 2703.000000,272.329834 
	C2703.000000,303.680359 2703.000000,335.090179 2703.000000,367.000000 
z"/>
<path fill="#4CADB7" opacity="1.000000" stroke="none" 
	d="
M3902.000000,394.000000 
	C3902.021729,353.525452 3902.042725,313.550934 3902.076660,273.576385 
	C3902.076904,273.269897 3902.255615,272.963593 3902.453369,272.330139 
	C3925.062256,272.330139 3947.765137,272.330139 3970.734619,272.330139 
	C3970.734619,358.714203 3970.734619,444.938385 3970.734619,531.581421 
	C3948.118164,531.581421 3925.414062,531.581421 3902.000000,531.581421 
	C3902.000000,485.959808 3902.000000,440.229919 3902.000000,394.000000 
z"/>
<path fill="#4CADB7" opacity="1.000000" stroke="none" 
	d="
M375.262024,534.410034 
	C382.277191,523.280396 390.327393,513.630127 401.495422,507.029144 
	C416.843475,497.957428 433.194763,494.487213 451.096252,496.765656 
	C468.535400,498.985260 483.124542,506.428070 495.089142,518.778137 
	C506.554230,530.612610 513.192200,544.922607 515.111206,561.583618 
	C518.062988,587.211365 509.847626,608.589478 491.360565,625.968811 
	C478.654022,637.914062 463.280701,644.372437 445.629059,645.027344 
	C433.631622,645.472473 422.099731,644.062561 410.936584,639.141052 
	C392.717316,631.108582 379.499603,618.047058 372.294342,599.745239 
	C368.821411,590.923706 366.848206,581.122009 366.284698,571.640015 
	C365.518616,558.749451 369.331573,546.373596 375.262024,534.410034 
z"/>
<path fill="#4CADB7" opacity="1.000000" stroke="none" 
	d="
M302.200165,472.353577 
	C289.418823,477.824677 276.302521,478.991852 263.052002,477.904144 
	C248.275757,476.691162 235.144592,470.783295 223.880203,461.264008 
	C212.023956,451.244568 203.785507,438.695099 199.833862,423.527344 
	C193.447754,399.015350 198.122818,376.848267 213.634018,356.807709 
	C224.951508,342.185455 240.048141,333.481018 257.800232,330.345245 
	C282.277161,326.021606 304.311218,331.804779 322.886475,349.268860 
	C335.366760,361.002594 343.325928,375.166229 345.716492,391.884674 
	C348.650452,412.403259 344.514496,431.653046 331.884674,448.612396 
	C324.138641,459.013824 314.231415,466.694611 302.200165,472.353577 
z"/>
<path fill="#4CADB7" opacity="1.000000" stroke="none" 
	d="
M458.515991,309.739929 
	C453.420074,310.576477 448.703888,311.864777 444.018829,311.760162 
	C437.153320,311.606842 430.106049,311.260712 423.494476,309.584076 
	C401.113190,303.908386 383.924530,290.888306 374.139618,269.869995 
	C362.806030,245.524979 363.531433,221.183807 377.621643,197.769882 
	C389.183350,178.557617 406.426727,167.108704 428.099457,163.268326 
	C450.693542,159.264648 471.295685,164.691803 489.270935,179.644775 
	C503.001831,191.067062 511.596832,205.551025 514.668274,222.774963 
	C519.078735,247.507919 512.875244,269.584015 495.375793,288.196075 
	C485.266785,298.947784 473.145233,305.993835 458.515991,309.739929 
z"/>
<path fill="#4CADB7" opacity="1.000000" stroke="none" 
	d="
M614.724487,329.001221 
	C630.276978,330.881866 644.007446,335.790680 656.127686,345.419983 
	C669.458374,356.010925 678.073547,369.575195 681.836853,385.798065 
	C687.648193,410.849213 682.671936,433.692261 665.241821,453.283813 
	C650.813782,469.501007 632.975159,477.653107 611.109253,478.143555 
	C589.416992,478.630035 570.907227,471.560852 556.003906,456.258118 
	C542.508301,442.400879 535.280518,425.566681 534.870850,405.737793 
	C534.377502,381.852478 543.193054,362.308929 560.857239,346.828186 
	C571.649902,337.369598 584.432312,331.442383 598.953003,330.012634 
	C604.038208,329.511902 609.154724,329.328583 614.724487,329.001221 
z"/>
<path fill="#4CADB7" opacity="1.000000" stroke="none" 
	d="
M3430.000000,497.000214 
	C3431.311523,473.294678 3447.205811,457.708679 3470.118408,458.207581 
	C3491.346924,458.669861 3508.003662,475.039215 3507.904053,496.814575 
	C3507.803955,518.690430 3490.911865,535.524475 3469.678467,535.862122 
	C3447.459229,536.215515 3431.137695,519.603027 3430.000000,497.000214 
z"/>
<path fill="#FFFFFF" opacity="1.000000" stroke="none" 
	d="
M3197.289795,384.295959 
	C3205.013672,367.968781 3212.488770,351.941589 3220.058105,335.959015 
	C3220.599121,334.816986 3221.833496,334.003418 3222.745605,333.037231 
	C3223.493408,334.001251 3224.452393,334.866180 3224.958496,335.943726 
	C3235.096924,357.530487 3245.247803,379.112122 3255.202393,400.783905 
	C3256.523926,403.660828 3257.101074,406.985779 3257.462891,410.166840 
	C3257.810303,413.222626 3255.286865,413.009399 3253.172607,413.007965 
	C3233.523926,412.994476 3213.875244,413.041870 3194.227051,412.951324 
	C3191.523193,412.938843 3188.822510,412.268982 3184.678711,411.708466 
	C3189.049316,402.144196 3193.056641,393.375458 3197.289795,384.295959 
z"/>
<path fill="#FFFFFF" opacity="1.000000" stroke="none" 
	d="
M2416.000000,338.000000 
	C2441.827637,338.000000 2467.161377,337.685272 2492.479248,338.183777 
	C2500.508789,338.341888 2508.666504,340.039429 2516.459961,342.157257 
	C2526.878174,344.988373 2533.143799,354.095428 2532.932129,364.875671 
	C2532.819824,370.588013 2532.991455,376.596436 2531.309082,381.926483 
	C2527.873291,392.812439 2518.662109,397.324554 2508.185791,398.871826 
	C2499.593018,400.140930 2490.843994,400.861145 2482.159180,400.908722 
	C2443.679199,401.119568 2405.197266,401.000000 2366.358154,401.000000 
	C2366.358154,380.104919 2366.358154,359.379272 2366.358154,338.000000 
	C2382.653809,338.000000 2399.076904,338.000000 2416.000000,338.000000 
z"/>
<path fill="#FFFFFF" opacity="1.000000" stroke="none" 
	d="
M3678.954102,412.990417 
	C3678.561035,411.948120 3678.228027,410.752838 3678.628418,409.903442 
	C3685.343750,395.661072 3692.191895,381.481293 3698.924072,367.246674 
	C3703.687988,357.173859 3708.306152,347.032043 3713.033936,336.941956 
	C3713.698242,335.524414 3714.617432,334.226501 3716.240723,331.484741 
	C3729.246582,359.255493 3741.674316,385.791992 3754.416016,412.998474 
	C3728.850830,412.998474 3704.102783,412.998474 3678.954102,412.990417 
z"/>
<path fill="#FFFFFF" opacity="1.000000" stroke="none" 
	d="
M1433.002441,391.987915 
	C1441.702026,373.451813 1450.334351,355.291656 1458.990601,337.142975 
	C1459.678101,335.701416 1460.531128,334.338745 1462.124023,331.466858 
	C1475.088379,359.121643 1487.521484,385.643280 1500.166138,412.616241 
	C1474.500977,412.616241 1449.181152,412.616241 1423.270874,412.616241 
	C1426.483765,405.888794 1429.712646,399.127808 1433.002441,391.987915 
z"/>
</svg>